<?xml version="1.0" encoding="UTF-8"?>
<svg id="Layer_1" xmlns="http://www.w3.org/2000/svg" version="1.1" viewBox="0 0 310.68 399.44">
  <!-- Generator: Adobe Illustrator 29.4.0, SVG Export Plug-In . SVG Version: 2.1.0 Build 152)  -->
  <defs>
    <style>
      .st0 {
        fill: #030303;
      }

      .st1 {
        fill: #dfdfdf;
      }
    </style>
  </defs>
  <rect class="st0" x="60.3" y="63.67" width="193.28" height="193.28"/>
  <g>
    <path class="st1" d="M212.7,216.15c-1.06-.22-2.06-.39-2.58-1.56-.21-.46-.78-.76-1.18-1.13-.61-.57-1.5-.87-1.68-1.84-.03-.14-.18-.3-.32-.36-1.71-.66-2.56-2.3-3.73-3.51-.96-.99-2.17-1.66-3.02-2.76-.94-1.23-1.95-2.44-3.06-3.51-1.45-1.4-3.03-2.65-4.55-3.97-.19-.17-.38-.36-.49-.59-.34-.66-.62-1.33-1.52-1.46-.24-.03-.42-.44-.64-.67-.44-.45-.52-1.14-1.41-1.29-.52-.09-.89-1.01-1.32-1.55-.09-.12-.13-.31-.25-.37-1.44-.82-2.69-1.8-3.36-3.41-.08-.19-.57-.22-.73-.45-.91-.85-1.84-1.68-2.71-2.56-.33-.33-.49-.81-.79-1.17-.49-.58-1.02-1.12-1.55-1.67-1.2-1.25-2.38-2.53-3.62-3.74-.89-.87-1.86-1.68-2.82-2.48-.17-.14-.48-.11-.76-.17-.31-.97-.38-2.22-1.79-2.02-.7-.78-1.3-1.49-1.95-2.15-1.05-1.07-2.12-2.12-3.2-3.17-1.19-1.16-2.39-2.3-3.58-3.47-.44-.43-.82-.92-1.28-1.34-.58-.54-1.19-1.05-1.83-1.51-.11-.08-.51.08-.68.24-1.91,1.84-3.78,3.71-5.69,5.56-.95.92-2.24,1.65-2.83,2.75-.6,1.13-1.78,1.52-2.33,2.45-.51.86-1.19,1.33-1.92,1.9-.65.51-1.08,1.28-1.69,1.84-1.15,1.07-2.41,2.03-3.53,3.13-1.35,1.33-2.62,2.74-3.89,4.14-.29.32-.44.78-.66,1.2-1.36.09-1.64.38-2.05,1.79-.46.42-.91.84-1.37,1.25-1.21,1.08-2.43,2.14-3.63,3.23-.3.28-.52.66-.81.95-.69.69-1.45,1.33-2.1,2.05-.74.83-1.26,1.92-2.13,2.58-1.81,1.38-3.49,2.89-5.13,4.45-.32.31-.54.73-.83,1.07-.2.24-.46.44-.7.64-.64.56-1.32,1.09-1.92,1.69-.53.54-.98,1.16-1.46,1.74-.13.15-.34.25-.4.42-.48,1.23-1.77,1.56-2.61,2.38-.94.92-1.78,1.93-2.69,2.89-1.54,1.61-3.07,3.23-4.65,4.8-.46.46-1.04.84-1.62,1.13-.3.15-.73.04-1.1.05.04-.46-.09-1.07.16-1.35,1.95-2.17,3.96-4.28,5.99-6.37.3-.31.84-.39,1.14-.69.58-.57,1.06-1.24,1.59-1.86.57-.68,1.09-1.42,1.75-2,1.31-1.17,2.95-2.06,4.01-3.41,1.43-1.83,3.36-3.13,4.72-5.02.82-1.14,2.05-1.98,3.06-2.99,1.12-1.12,2.18-2.3,3.31-3.41,1.14-1.13,2.36-2.19,3.49-3.33.71-.72,1.33-1.53,1.98-2.3.1-.12.18-.35.29-.36,1.15-.15,1.53-1,1.96-1.91.21-.44.8-.7,1.2-1.05,1.03-.91,2.06-1.82,3.06-2.76.61-.57,1.17-1.21,1.76-1.8,1.23-1.23,2.49-2.44,3.7-3.69.47-.48.81-1.08,1.26-1.57.79-.87,1.51-1.88,2.47-2.49.86-.55,1.32-1.43,2.08-1.95,1.42-.96,2.52-2.24,3.75-3.39,1.5-1.4,2.79-3.02,4.17-4.56-.82-.63-1.58-1.19-2.31-1.78-.13-.1-.09-.38-.21-.52-.47-.59-.98-1.15-1.46-1.74-.74-.91-1.9-1.31-2.46-2.57-.41-.93-1.32-1.96-2.64-2.26-.48-.11-1.1-.68-1.21-1.15-.36-1.49-1.62-1.8-2.76-2.5.15-1.34-1.08-1.82-1.9-2.61-.78-.74-1.42-1.71-2.32-2.22-1.61-.92-2.49-2.59-4-3.57-.13-.08-.34-.14-.38-.25-.48-1.5-1.9-2.02-2.98-2.9-.09-.07-.16-.17-.24-.25-.6-.64-1.2-1.28-1.81-1.91-.41-.43-1.07-.77-1.22-1.26-.41-1.41-1.84-1.74-2.62-2.72-.32-.41-.78-.72-1.38-1.26-.33.18-.83.56-1.41.75-.87.29-1.82.34-2.66.68-1.59.65-3.26.44-4.86.44-2.12,0-4.28-.25-6.18-1.44-.4-.25-.95-.25-1.35-.5-.64-.4-1.21-.9-1.8-1.38-.09-.07-.16-.31-.2-.3-1.21.21-1.45-1.22-2.42-1.45-.22-.05-.3-.54-.51-.76-.33-.35-.67-.79-1.09-.93-.82-.27-1.19-.94-1.67-1.53-.25-.3-.44-.69-.75-.88-1.57-.98-2.53-2.49-3.5-3.98-1.07-1.66-2.2-3.31-3.03-5.09-.48-1.03-.42-2.31-.61-3.48-.11-.7-.25-1.39-.35-2.09-.03-.22-.09-.54.03-.67.89-.97.35-2.1.46-3.16.09-.92.62-1.81.96-2.7.07-.18.26-.33.28-.5.16-1.39,1.42-2,2.09-3.03.31-.48.58-1.01.97-1.42.37-.38.87-.63,1.34-.9.41-.24.82-.48,1.26-.63,1.48-.48,2.98-.4,4.52-.4,2.03,0,3.68,1.16,5.6,1.38.49.06.95.51,1.4.82,1.14.77,2.27,1.56,3.39,2.36.86.61,1.69,1.27,2.55,1.88.55.39,1.11.76,1.68,1.12.38.24.81.42,1.14.71,1.36,1.17,2.74,2.33,3.48,4.06.48,1.13,1.09,2.2,1.68,3.28.36.66.85,1.25,1.18,1.92.48,1,.93,2.03,1.28,3.09.18.56.13,1.19.18,1.79.03.42-.05.88.1,1.25.86,2.13.5,4.24-.11,6.32-.21.72-.8,1.31-1.11,2.01-.23.51-.3,1.1-.42,1.66-.02.12,0,.29.08.37.53.57,1.08,1.13,1.63,1.69,1.52,1.51,2.99,3.07,4.58,4.49,1,.89,1.77,1.91,2.62,2.91,1.25,1.47,2.91,2.59,4.4,3.87.1.08.24.15.28.26.62,1.55,2.37,2.13,3.08,3.56.63,1.27,2.12,1.47,2.84,2.57.55.84,1.04,1.69,2.2,1.9.39.07.78.7.98,1.15.62,1.44,1.67,2.39,3.06,3.03.15.07.3.16.39.28.53.69,1.03,1.41,1.57,2.1.19.24.46.42.71.62.9.72,1.82,1.41,2.69,2.17.21.19.25.57.43,1.01.31-.16.8-.24.87-.46.42-1.39,1.75-1.88,2.64-2.79.27-.28.48-.61.75-.88,1.61-1.56,3.24-3.09,4.84-4.65.3-.29.52-.67.82-.96,1.36-1.36,2.74-2.7,4.1-4.06,1.83-1.83,3.66-3.66,5.46-5.51.94-.97,1.81-2.01,2.77-2.97.7-.7,1.47-1.33,2.23-1.97.66-.55,1.63-.94,1.97-1.63.63-1.28,1.97-1.78,2.68-2.79,1.13-1.63,2.78-2.63,4.06-4.05.31-.35.58-.76.92-1.07.44-.4.94-.74,1.39-1.08-.47-.96-.99-2.01-1.49-3.06-.41-.87-.22-1.64.25-2.47.28-.5.18-1.19.38-1.75.47-1.36,1-2.69,1.52-4.02.09-.22.23-.42.34-.63.2-.38.41-.76.6-1.14.24-.49.47-.98.69-1.47.11-.24.15-.52.3-.72,1.39-1.83,2.8-3.64,4.18-5.49.98-1.31,1.81-2.74,2.89-3.96,1-1.12,2.24-2.03,3.37-3.04.97-.87,1.93-1.76,2.89-2.64.07-.06.09-.21.16-.24,1.56-.68,2.16-2.4,3.52-3.29.34-.22.58-.6.92-.8.38-.23.84-.49,1.25-.48.25,0,.69.51.69.78,0,.37-.3.79-.57,1.1-.66.76-1.37,1.48-2.13,2.28-.76-.28-1.22.22-1.53,1.01-.09.23-.2.56-.39.64-2.04.93-3.27,2.77-4.8,4.27-.59.58-1.07,1.26-1.65,1.85-1.13,1.14-2.33,2.22-3.41,3.4-.49.53-.79,1.25-1.17,1.89-.23.39-.41.81-.68,1.16-.67.87-1.42,1.66-1.57,2.84-.04.33-.45.59-.65.91-.25.41-.49.83-.69,1.27-.3.64-.54,1.32-.84,1.96-.54,1.16-1.27,2.27-1.62,3.49-.32,1.12-.31,2.35-.31,3.53,0,.21.64.63.94.59.45-.05.88-.4,1.27-.68s.73-.65,1.09-.97c.13-.12.28-.22.41-.35.3-.31.59-.64.89-.96.43-.46.84-.93,1.3-1.36.97-.93,1.97-1.82,2.93-2.77.27-.27.4-.69.67-.97.57-.6,1.17-1.17,1.77-1.74.6-.56,1.28-1.05,1.84-1.65,1.39-1.48,2.58-3.19,4.14-4.44,1.06-.86,1.75-2.11,3.09-2.7.75-.33,1.22-1.26,1.85-1.89.67-.67,1.43-1.27,2.07-1.97.87-.94,1.67-1.95,2.52-2.92.32-.36.68-.68,1.04-1,.52-.46,1.17-.51,1.52.06.22.37.23,1.15-.02,1.46-.65.8-1.53,1.4-2.27,2.14-.81.81-1.55,1.7-2.37,2.5-.77.76-1.63,1.42-2.39,2.18-.52.52-.94,1.13-1.62,1.97-.65.06-1.25.75-1.65,1.7-.07.17-.3.29-.47.42-.16.11-.36.17-.49.3-1.26,1.19-2.44,2.48-3.8,3.55-1.48,1.16-2.03,3.25-4.04,3.87-.32.1-.43.78-.74,1.07-.97.87-2.01,1.65-2.98,2.52-.3.27-.41.74-.7,1.04-.82.84-1.72,1.62-2.52,2.48-.28.3-.46.76-.53,1.17-.02.14.44.35.68.54.41.33.82.67,1.13.92.63.22,1.17.44,1.72.59.29.08.62.12.92.07.64-.1,1.27-.37,1.91-.4.84-.04,1.49-.23,2.16-.84.66-.6,1.68-.77,2.48-1.25,1.54-.92,3.08-1.87,4.53-2.92.93-.68,1.69-1.6,2.55-2.38,1.23-1.12,2.57-2.14,3.72-3.33,1.38-1.42,3.02-2.56,4.19-4.27.56-.81,1.02-2.22,2.48-2.29.14,0,.36-.32.39-.52.22-1.45,1.59-1.98,2.35-2.99.23-.3.55-.54.82-.81.48-.47,1.02-.5,1.49-.07.49.44.46.99.02,1.48-.82.91-1.66,1.8-2.5,2.7-.11.12-.21.31-.34.34-1.24.31-1.49,1.34-1.93,2.21-.33.33-.67.66-1,1-.16.16-.26.39-.44.51-1.25.86-2.29,1.89-3.22,3.11-.92,1.21-2.02,2.43-3.3,3.2-1.07.64-1.85,1.58-2.78,2.31-1.31,1.03-2.72,1.87-4.07,2.81-1.29.91-2.52,1.9-3.88,2.69-.74.43-1.7.49-2.52.8-.62.24-1.2.61-1.91.99-.91-.54-1.97-1-3.05-.06-.77-.15-1.07-1.6-2.16-.63-.5-.62-.92-1.25-1.43-1.78-.71-.74-1.11-.63-1.55.25-.14.28-.34.65-.59.72-1.13.3-1.5,1.35-2.2,2.06-.91.91-1.91,1.74-2.8,2.68-.61.65-1.11,1.41-1.64,2.13-.09.12-.13.28-.2.43-.06-.08-.12-.15-.19-.23-.38.24-.81.41-1.12.72-.81.82-1.58,1.68-2.33,2.56-.38.45-.68.96-1.06,1.37-.56.56-1.12,1.11-1.68,1.67-.02-.02-.04-.04-.06-.05-.32.28-.66.53-.95.83-.84.85-1.67,1.71-2.51,2.57-.4.41-.73,1.02-1.21,1.21-1.56.61-2.13,2.16-3.25,3.17-1.26,1.13-2.54,2.24-3.75,3.42-.91.88-1.71,1.88-2.61,2.78s-1.97,1.79-2.88,2.76c-.79.85-1.46,1.81-2.3,2.86-.17.02-.61.07-1.36.17.61.84,1.03,1.59,1.6,2.2,1.37,1.44,2.81,2.82,4.21,4.22.11.11.13.33.26.4,2.32,1.29,3.6,3.71,5.72,5.22.24.17.34.53.5.81.11.2.15.54.3.59,1.1.41,1.75,1.33,2.55,2.1.16.16.41.26.5.44.81,1.63,2.4,2.49,3.6,3.74.91.94,1.78,1.92,2.67,2.88.09.09.17.25.27.26,1.45.2,1.87,1.54,2.73,2.41,1.11,1.15,2.38,2.15,3.54,3.25.56.53,1.03,1.15,1.56,1.71.3.32.65.6.97.9.92.84,2.03,1.56,2.71,2.56,1.25,1.84,3.1,3.06,4.41,4.84.96,1.3,2.41,2.24,3.59,3.39,1.1,1.08,2.13,2.23,3.2,3.34.29.3.59.58.89.87.69.67,1.38,1.34,2.07,2.02,2.01,1.95,4.05,3.87,6,5.86.53.54,1.24,1.17.68,2.29l.06-.06ZM124.83,123.77c.06-.34.22-.97.26-1.61.11-1.66-.34-3.35.28-5,.07-.19-.03-.59-.19-.72-.81-.63-.7-1.55-.86-2.39-.04-.2-.14-.38-.22-.57-.42-.89-.85-1.77-1.26-2.66-.03-.07.05-.19.03-.27-.1-.44-.14-.92-.35-1.3-.41-.76-.92-1.47-1.39-2.2-.09-.13-.2-.25-.31-.37-.28-.29-.56-.56-.84-.85-.25-.26-.48-.53-.73-.79-.18-.18-.46-.32-.53-.53-.49-1.36-1.79-2.02-2.74-2.9-1.57-1.45-3.54-2.47-5.35-3.66-.26-.17-.59-.36-.88-.35-.97.03-1.67-.42-2.39-1-.46-.37-1.14-.79-1.63-.7-.67.13-1.18-.02-1.71-.27-1.95-.91-3.79-.04-5.67.28-.57,1.1-2.08,1.12-2.62,2.33-.44.99-1.36,1.79-1.67,2.79-.35,1.14-.22,2.42-.89,3.53-.19.31.03.87.08,1.31.04.32.22.66.15.95-.22.98.04,1.85.25,2.81.45,2.09,1.03,4.04,2.58,5.59.11.11.14.29.23.43.29.49.49,1.11.9,1.45.7.57.82,1.62,1.8,1.98.31.12.35.83.67,1.11,1.34,1.17,2.76,2.27,4.12,3.43,1.28,1.1,2.57,2.17,3.99,3.1.73.48,1.32,1.01,2.25,1.09.93.08,1.89.17,2.78.45,2.35.74,4.69-.09,7.04.08.22.02.45-.22.68-.33.34-.15.73-.23,1.01-.44.61-.47,1.29-.93,1.72-1.55.34-.49.33-1.22.56-1.8.07-.18.43-.24.87-.46h-.02Z"/>
    <path class="st1" d="M160.99,125.88c1.09.22,1.92.03,2.68-.91.5-.61,1.44-.83,2.14-1.29.9-.6,1.76-1.27,2.58-1.86-.28-.97-1.21-1.63-.7-2.69.04-.07.03-.23-.03-.28-1.05-.86-.27-2.2-.84-3.19-.07-.13-.07-.32-.05-.48.23-1.72.46-3.45.74-5.17.05-.32.29-.62.46-.92.09-.17.27-.31.32-.48.54-2.07,1.58-3.96,2.84-5.14.05-.04.08-.12.14-.14,1.33-.36,1.95-1.5,2.78-2.43.31-.34,1.08-.47,1.58-.38.67.11.71.74.71,1.4,0,1.07.46,2.2.24,3.2-.27,1.25-.16,2.44-.22,3.66-.07,1.44-.34,2.88-.63,4.3-.34,1.68-.77,3.34-1.23,4.99-.11.39-.64.44-.93.87-.67.99-1.03,2.29-2.34,2.85-.56.24-.91.95-1.4,1.41-.75.7-1.52,1.4-2.33,2.05-.62.5-1.29.94-1.96,1.4-.36.25-.66.54-1.24.36-.4-.12-.94.1-1.38.25-.54.19-1.05.48-1.57.73-.68.33-.66.82-.46,1.47.15.5.11,1.07.11,1.6,0,.25-.14.5-.12.74.07,1.13.27,2.26.25,3.38-.02,1.46-.27,2.92-.28,4.38,0,.7-.07,1.25-.76,1.58-.93-.42-.68-1.32-.78-2.04-.08-.63.06-1.28.03-1.92-.03-.6-.15-1.2-.24-1.79-.08,0-.17,0-.25.02.12-.23.26-.45.35-.69.19-.52.03-.8-.54-.62-1,.31-1.88.32-2.55-.65-.1-.14-.41-.11-.62-.19-.85-.32-1.77-.53-2.53-1.01-.5-.32-.7-1.08-1.15-1.52-.85-.84-1.81-1.57-2.68-2.39-1.2-1.14-2.07-2.52-2.78-4.01-.08-.17-.17-.37-.31-.48-1.69-1.28-2.13-2.99-1.97-5.03.07-.93-.23-1.89-.35-2.84-.03-.25-.04-.52,0-.77.25-1.92.57-3.83.76-5.76.08-.84-.05-1.64.56-2.42.87-1.1,2.15-1.21,3.04-.13.6.73,1.24,1.42,1.86,2.14.75.86,1.63,1.64,2.19,2.62.58,1.01.91,2.19,1.24,3.33.67,2.3.38,4.65-.04,6.92-.32,1.74-.57,3.58-1.89,5.01-.21.23-.16,1,.07,1.28.57.68,1.25,1.3,1.99,1.81.9.62,1.89,1.11,2.84,1.66.11.06.2.18.32.22.8.24,1.6.46,2.58.74-.05-.47-.14-1.1-.16-1.73-.02-.46.04-.92.1-1.38.03-.24.27-.51.21-.7-.65-2,.02-4.08-.38-6.11-.2-.98.3-2.1.14-3.09-.16-.94.38-1.94.17-2.54-.44-1.25-.04-2.27.1-3.39.03-.2-.05-.44-.16-.63-.54-.94-1.07-1.88-1.68-2.78-.51-.76-1.11-1.45-1.67-2.18-.14-.18-.35-.33-.41-.53-.39-1.35-.91-2.7-1.09-4.08-.22-1.68-.28-3.42-.15-5.1.11-1.38.54-2.75.97-4.08.24-.73.76-1.36,1.17-2.03.6-.98,1.21-1.95,1.82-2.92.07-.11.15-.22.18-.34.39-1.65,1.39-2.91,2.62-4.02,1.21-1.1,2.35-.88,2.92.64.62,1.68,1.19,3.37,1.76,5.07.52,1.52,1.12,3.03,1.48,4.59.47,2.01.81,4.07-.04,6.1,0,.03-.05.06-.04.09.58,2.03-.99,3.52-1.48,5.25-.47,1.66-1.94,3.05-3.03,4.52-.31.41-.91.6-1.26,1-.29.33-.57.82-.54,1.23.07,1.13.66,2.24.04,3.4-.09.16.13.47.16.72.05.5.06.99.1,1.49.04.5.13,1.01.12,1.51-.05,1.79-.14,3.57-.22,5.35v-.08ZM160,111.44c1.35-1.96,2.55-3.68,3.73-5.42.36-.53.88-1.07.95-1.65.16-1.36.72-2.61.66-4.06-.06-1.4-.18-2.84-.11-4.22.09-1.93-1.13-3.4-1.23-5.23-.05-1.01-.92-1.98-1.42-2.96-.19-.36-.39-.71-.62-1.12-.87,1.11-1.99,2.04-2.43,3.22-.63,1.68-2.41,2.87-2.11,4.92,0,.06-.05.12-.07.18-.34.92-.98,1.85-.94,2.76.07,1.52-.75,2.95-.09,4.54.69,1.66.84,3.54,1.48,5.23.47,1.24,1.33,2.33,2.21,3.81h-.01ZM149.93,125.76c.13-.28.29-.62.43-.97.47-1.12,1.06-2.17,1.47-3.34.69-1.99-.1-3.77-.31-5.62-.11-.99-.18-2.06-1.2-2.94-.73-.63-.85-1.99-1.62-2.82-.64-.69-1.27-1.39-1.9-2.09-.11.05-.22.09-.32.14-.13.78-.32,1.56-.36,2.35-.1,1.73,0,3.49-.21,5.21-.18,1.55-.08,3,.5,4.44.29.72.56,1.44.84,2.17.2.51.28,1.12.62,1.51.61.72,1.37,1.3,2.08,1.96h-.02ZM169.77,120.68c.86-.98,1.74-1.97,2.61-2.97.08-.09.17-.23.16-.34-.1-1.52,1.5-2.63,1.04-4.25-.02-.06.12-.16.15-.24.15-.57.37-1.13.41-1.71.07-1,.02-2,.03-3,0-.13.02-.27.08-.38.41-.74.67-1.48.19-2.3-.07-.12.06-.37.09-.56.1-.58.2-1.16.3-1.74-.14-.07-.28-.13-.42-.2-.4.42-.82.83-1.19,1.27-.42.49-.8,1.01-1.2,1.51-.57.73-1.32,1.38-1.68,2.21-.59,1.37-.9,2.85-1.37,4.28-.51,1.53,0,3.06.02,4.59,0,1.29.51,2.57.79,3.83h-.01Z"/>
    <path class="st1" d="M158.38,203.54c0,1.42.02,2.76,0,4.09-.04,1.62-.15,3.25-.17,4.87,0,.5.23,1.01.24,1.51,0,.77-.09,1.54-.16,2.46-.04-.03.06.08.18.12,1.94.7,2.49,2.56,3.28,4.12.58,1.14.71,2.5,1.05,3.76.31,1.18.7,2.35.92,3.55.15.81.08,1.65.1,2.48,0,.19-.13.41-.07.58.56,1.57.22,3.21-.25,4.61-.51,1.54-.55,3.25-1.71,4.65-.86,1.03-1.22,2.47-1.82,3.72-.17.34-.39.66-.69.93-.11,1.36-.27,1.54-1.94,1.85-.21-1-.4-2.01-.64-3.01-.07-.32-.21-.64-.38-.93-.37-.61-.99-1.1-.81-1.96.05-.22-.09-.52-.22-.73-.55-.85-1.11-1.68-1.16-2.75,0-.23-.25-.44-.34-.67-.2-.48-.38-.97-.54-1.46-.11-.33-.07-.73-.24-1.01-.53-.89-.48-1.83-.45-2.8.02-.56-.38-1.13-.34-1.67.07-.89-.25-1.87.44-2.66.02-.02.04-.07.03-.09-.72-1-.02-1.93.16-2.88.07-.36.29-.68.41-1.03.22-.67.41-1.35.63-2.01.23-.7.4-1.44.76-2.07.39-.69,1-1.25,1.42-1.92.2-.32.23-.76.27-1.16.1-.86.22-1.72.21-2.58,0-1.16-.12-2.33-.18-3.49-.02-.38.02-.76-.06-1.12-.26-1.24.59-2.44.06-3.71-.17-.4.04-.96.07-1.44.09-1.52.2-3.04.25-4.57,0-.35-.24-.7-.37-1.06-.28.24-.56.49-1.01.88-1.74-.58-2.65,1.38-4.17,1.95-.53.2-.86.88-1.36,1.26-.25.19-.54.32-.93.55.42.55.95,1.1,1.32,1.74.38.67.88,1.27.79,2.22-.09.93.31,1.9.41,2.86.04.42-.11.86-.21,1.28-.13.55-.34,1.08-.42,1.63-.1.69.07,1.44-.72,1.88-.16.09-.25.38-.29.6-.28,1.42-1.07,2.6-1.92,3.69-.5.64-1.33,1.02-1.93,1.6-.8.78-1.52,1.6-2.47,2.27-.82.57-1.56.51-2.16.19-.61-.32-1.07-1.03-.98-1.92.18-1.87.24-3.76.44-5.63.07-.67.41-1.32.61-1.98.06-.21.05-.45.11-.66.09-.33.19-.66.31-.98.07-.18.22-.35.24-.53.2-1.77,1.25-3.2,1.96-4.76.23-.51.75-.87,1.06-1.35.54-.84,1-1.73,1.55-2.56.16-.24.51-.36.77-.53.11-.07.32-.07.34-.15.42-1.46,1.94-1.33,2.72-2.35.42-.56,1.38-.69,2.05-1.08.41-.23.72-.63,1.12-.89.41-.27.87-.67,1.29-.66,1.07.03,1.83-1.58,1.54-2.37-.04-.12-.17-.27-.13-.36.41-1.03-.31-2.13.28-3.19.26-.45.06-1.14.2-1.69.09-.35.44-.63.67-.94.23.29.62.55.66.86.15,1.17.18,2.36.25,3.54.05.87.14,1.75.14,2.62s-.15,1.72-.18,2.59c-.03,1.08,0,2.15,0,2.96.59.47.96.87,1.42,1.11.61.32,1.35.42,1.91.8,1.1.73,2.12,1.57,3.17,2.38.28.22.48.55.78.72,1.24.72,2.06,1.78,2.77,3,1.02,1.76,2.22,3.43,3.29,5.17.34.56.61,1.2.74,1.83.34,1.73,1.51,3.18,1.54,5.03.02,1.21.4,2.42.63,3.62.03.16.17.32.15.46-.26,1.49-.47,2.98-.84,4.44-.18.73-1.99.69-2.64-.08-.74-.87-1.36-1.85-2.05-2.76-.42-.56-.88-1.09-1.31-1.64-.15-.2-.38-.42-.39-.64-.11-1.64-1.34-2.74-1.96-4.13-.28-.64-.66-1.29-.7-1.96-.1-1.56-.12-3.14,0-4.71.07-.88.49-1.73.72-2.6.17-.62.31-1.24.43-1.87.02-.09-.1-.27-.19-.31-1.2-.51-1.34-2.22-2.92-2.42-.61-.08-1.22-.82-1.65-1.39-.74-.97-1.52-1.61-2.78-1.18v.02ZM158.18,242.59c.57-.84,1.27-1.74,1.83-2.72.45-.79.74-1.67,1.06-2.53.21-.57.93-1.05.4-1.8-.03-.04.14-.19.18-.31.13-.41.3-.82.34-1.25.09-.83.1-1.67.15-2.51,0-.19.14-.45.06-.57-.63-.93-.32-1.95-.29-2.94.02-.61.1-1.15-.52-1.54-.12-.07-.1-.38-.15-.57-.08-.29-.14-.59-.26-.87-.14-.32-.39-.59-.49-.91-.35-1.17-.64-2.35-.99-3.52-.09-.29-.29-.54-.46-.8-.18-.27-.42-.5-.57-.78-.16-.3-.25-.65-.37-.97-.11-.03-.21-.06-.32-.09-.28.54-.58,1.07-.85,1.61-.2.4-.29.9-.58,1.22-.83.92-1.43,1.91-1.52,3.17-.06.85-.14,1.7-.21,2.56-.06.69-.15,1.37-.17,2.06-.02.52.14,1.05.07,1.55-.24,1.81-.24,3.56.86,5.14.1.15.07.38.13.56.52,1.51,1.03,3.02,1.59,4.51.29.76.69,1.48,1.07,2.29h.01ZM147.79,204.17h-.4c-2.11,2.25-2.86,5.24-3.93,7.99-1.09,2.79-.89,5.87-1.11,9,.9-.69,1.67-1.16,2.29-1.78,1.62-1.62,2.49-3.74,3.6-5.69.08-.14.19-.33.15-.45-.33-.99.72-1.21.95-1.81.25-.63.04-1.44.04-2.16,0-.03.05-.05.06-.08.02-.18.1-.41.02-.54-.42-.72-.02-1.73-.86-2.34-.25-.18-.21-.73-.35-1.09-.13-.36-.31-.7-.47-1.04h.01ZM167.46,210.56c-.61,1.08-.66,2.05-.84,3.06-.4,2.31.34,4.38.92,6.49.3,1.08.51,2.32,1.77,2.9.19.09.26.49.35.76.52,1.46,1.41,2.58,2.8,3.3,0-2.98-.03-5.9-1.31-8.52-1.25-2.56-1.59-5.55-3.7-7.98h0Z"/>
    <path class="st1" d="M230.17,166.02c-.52.28-1.13.47-1.55.87-1.13,1.06-2.67,1.25-3.94,1.97-.92.52-1.66-.02-2.48-.17-.71-.13-1.45-.27-2.16-.22-.89.06-1.67-.02-2.32-.7-.62-.65-1.33-1.24-1.88-1.94-.29-.37-.32-.94-.47-1.43-.52.08-1.13.24-1.73.24-1.07,0-2.15,0-3.21-.14-1.74-.23-3.42-.26-5.16.18-.76.19-1.66-.22-2.5-.3-.4-.04-.82.1-1.22.08-.88-.03-1.75-.15-2.63-.15s-1.71.1-2.56.17c-.51.04-1.17.31-1.5.08-1.19-.82-2.48.09-3.64-.48-.05.09-.1.18-.15.28.52.42.98.94,1.56,1.23,1.54.75,2.88,1.77,4.14,2.92.97.9,1.98,1.76,3.01,2.6.16.14.52.02.72.14,1.26.81,2.52,1.63,3.74,2.49.26.18.36.58.59,1,.25-.34.4-.74.7-.9.55-.3,1.16-.48,1.76-.66.34-.1.73-.03,1.05-.17,2.48-1.04,4.78-.36,6.74,1.1,1.21.91,2.29,2.24,2.01,4.07-.04.24.09.5.13.76.05.25.19.53.13.75-.64,2.35-1.99,4.38-5.09,3.7-.55-.12-1.15-.07-1.72,0-.55.05-1.03.28-1.5-.35-.25-.34-.95-.3-1.38-.55-.78-.44-1.61-.87-2.23-1.49-1.54-1.52-1.76-3.64-1.51-5.26-.48-.34-.86-.62-1.25-.89-1.43-.96-2.89-1.87-4.29-2.87-1.16-.83-2.22-1.78-3.36-2.62-1.22-.89-2.5-1.69-3.71-2.6-.85-.64-1.63-1.38-2.5-2.13-.19-.02-.58-.05-.96-.09-1.08-.13-2.24-.55-3.23-.31-.67.17-1.22.47-1.95.27-1.27-.35-1.4-.52-1.1-1.91.96-.02,1.81-.48,2.95.03.89.4,2.2-.27,3.31-.23,1.15.04,2.38-.57,3.46.3.05.04.12.06.18.05,1.12-.15,2.24-.3,3.37-.45.22-.03.49-.13.66-.06.95.42,1.42-.12,1.93-.79.38-.5.28-.41.6-.92.76-1.19,1.86-1.91,3-2.64.24-.16.29-.71.32-1.09.02-.19-.18-.41-.31-.59-.63-.86-1.09-1.78-.71-2.87.62-1.84,1.03-3.82,3.02-4.81.09-.04.17-.12.26-.13,1.05-.1,2.11-.19,3.16-.27.48-.03,1.03-.18,1.44,0,.89.39,1.92.77,2.5,1.48.58.71,1.1,1.91.91,2.73-.4,1.77-.27,3.97-2.51,4.86-.24.1-.4.4-.59.62-.43.47-.8.91-1.6.75-.38-.07-.86.32-1.29.5-.8-.21-1.75-.76-2.52-.57-.75.19-1.33,1.1-1.94,1.75-.18.19-.2.54-.31.88-1.22-.1-1.03.38-1.49,1.23,2.15,0,4.35-.23,6.49.06,2.74.36,5.41-.34,8.11-.18.44.03.87.21,1.32.32.5-2.5,2.38-3.85,4.44-4.72,1.03-.44,2.43-1.2,3.72-.21.14.11.39.18.56.14,2.13-.54,3.68.84,5.27,1.76.73.42,1.05,1.66,1.4,2.58.22.57.21,1.24.18,1.87-.03.75-.17,1.5-.26,2.25-.13-.06-.26-.12-.38-.18h-.05ZM221.67,159.29c-2.18.68-3.83,1.87-4.91,3.83.33.48.95,1.02,1.07,1.66.14.76.56.91,1.1,1.14.53.23,1.01.58,1.54.78.51.19,1.07.34,1.61.33.76-.02,1.53-.15,2.26-.34,1.64-.43,3.54-.39,4.36-2.36.06-.14.27-.22.31-.36.08-.27.21-.61.11-.83-.19-.39-.6-.68-.79-1.08-.76-1.52-1.84-2.34-3.61-2.7-.98-.2-1.68-.34-2.4.29-.3-.16-.55-.31-.63-.35h-.02ZM211.98,182.01c1.89-.04,2.71-.82,3.06-2.65.42-2.19-1.38-4.3-3.55-4.49-.7-.06-1.39-.15-2.09-.18-.54-.02-1.11-.05-1.61.11-.44.14-.78.57-1.19.82-.79.47-1.25,1.97-.66,2.64.67.76,1.44,1.49,2.3,2.04,1.05.67,2.22,1.15,3.35,1.69.11.05.26,0,.39,0v.02ZM205.15,150.01c-.12.24-.27.65-.32.64-1.16-.26-1.77.8-1.95,1.36-.37,1.16-.24,2.49-.3,3.75,0,.06.13.15.21.19,1.56.75,3.19.94,4.77.19.45-.21.67-.91.99-1.38.26-.37.5-.76.78-1.11.35-.41.52-2.3.14-2.65-.75-.7-1.86-.95-2.69-.85-.59.07-1.07-.06-1.64-.15h0Z"/>
    <path class="st1" d="M82.56,164.68c.07-.52.28-.99.15-1.32-.54-1.39.06-2.42.93-3.37,1.01-1.1,2.33-1.5,3.79-1.67,1.09-.12,2.35.33,3.16-.02,1.28-.56,2.18.43,3.26.23.2-.04.45.21.68.31.47.21.94.58,1.41.6,1.13.04,1.7.51,1.72,1.65,0,.29.1.57.19,1.04.82-.08,1.67-.23,2.51-.23,1.03,0,2.06.12,3.1.16.67.03,1.33.03,2,0,.91-.06,1.82-.18,2.73-.28.1,0,.21-.06.29-.02,1.96.91,4.06-.7,6.07.36-1.27-1.72-2.84-3.05-4.57-4.31-.68.69-1.46.66-2.47.2-.77-.35-1.76-.42-2.62-.32-1.42.17-1.97-.98-2.88-1.59-.93-.63-.89-1.83-1.48-2.66-.24-.33-.47-.67-.83-1.2.32-.99.63-2.19,1.13-3.31.21-.47.81-.8,1.31-1.08,1.55-.88,3.2-.68,4.81-.25,1.09.3,2.14.78,3.19,1.21.2.08.37.27.5.44.57.75,1.13,1.5,1.66,2.28.14.2.25.49.23.73-.1,1.07-.05,2.2-.42,3.17-.47,1.22.28,1.76.9,2.42,1.35,1.43,3.2,2.3,4.35,3.96.1.15.45.18.67.17,1.44-.1,2.85.17,4.33-.17,1.16-.26,2.49.3,3.75.32,1.38.03,2.77-.16,4.15-.22.55-.03,1.13-.1,1.64.06.31.1.68.6.67.91-.02.35-.38.92-.68.98-.68.15-1.33.28-2.15.09-1.54-.36-3.2-.19-4.81-.19-.2,0-.44.33-.59.55-1.17,1.63-2.72,2.71-4.59,3.4-.31.11-.53.44-.8.68-.69.61-1.3,1.35-2.08,1.78-.76.41-1.13,1.2-1.79,1.57-.96.54-1.7,1.21-2.41,2.02-.36.41-1.1.46-1.66.7-.81.35-.85,1.05-.75,1.78.13.99.02,1.93-.55,2.77-.65.96-1.3,1.93-2.03,2.84-.19.24-.65.27-.98.38-1.48.52-2.71,1.71-4.44,1.55-.31-.03-.65.23-.84.3-1.05-.65-2.04-1.27-3.04-1.9-.11-.07-.27-.14-.3-.24-.31-1.21-1.43-2.03-1.4-3.45.03-1.3.43-2.35,1.24-3.29.52-.6,1-1.17,1.9-1.42.58-.16,1.02-.85,1.72-1.14,2.13-.86,3.74-.97,5.68-.09.24.11.42.39.57.63.56.93,1.42,1.07,2.12.28.47-.53.86-1.12,1.33-1.64.21-.23.52-.37.78-.57.53-.4,1.05-.81,1.57-1.22.03-.02.04-.06.06-.07.87-.55,1.78-1.06,2.61-1.67.97-.7,1.87-1.49,2.81-2.24.45-.36.9-.72,1.37-1.06.42-.3.86-.56,1.31-.85-.66-.51-9.4-.4-10.69.1-.75-.83-1.42-.81-2.26-.03-2.16-.51-4.19-.49-6.21-.12-.62-.06-1.23-.11-1.83-.17-.54-.06-1.09-.2-1.63-.19-1.15,0-1.19,1.18-1.79,1.78-.5.51-1.07.98-1.68,1.34-.95.56-1.94,1.1-2.97,1.49-.6.23-1.32.21-1.99.2-.64,0-1.27-.19-1.91-.2-1.71-.02-3.38-.24-4.65-1.47-.68-.65-1.14-1.54-1.61-2.22l.03.04ZM97.01,162.99c-.66-.76-1.17-1.38-1.71-1.95-.24-.26-.55-.59-.85-.62-1.89-.2-3.8-.25-5.68-.49-1.2-.16-2.18.16-3.08.85-.34.25-.83.55-.88.89-.13.89-.11,1.81-.06,2.71.07,1.3.52,1.72,1.81,1.89.63.08,1.27.12,1.89.26,1.96.45,3.17.31,4.96-.6.13-.07.33.02.48,0,.31-.06.66-.09.93-.25,1.13-.7,2.22-1.46,2.21-2.66l-.02-.02ZM102.5,181.79c1.01-.56,2.56-.29,3.4-1.7.3-.49.99-.74,1.33-1.22.46-.63,1.01-1.36,1.06-2.09.14-1.7-1.46-1.86-2.55-2.4-.39-.19-.85-.23-1.28-.31-.07,0-.16.12-.25.13-.14.03-.34.08-.42,0-.67-.57-1.2-.08-1.81.16-.98.38-1.49,1.23-2.17,1.92-.78.79-1,1.62-.86,2.73.15,1.12,1.43,1.44,1.53,2.52,0,.03.18.05.27.06.52.06,1.03.11,1.75.18h0ZM101.98,151.94c-.14.8.22,1.62,1.14,2.21.38.24.67.65,1.07.83,1.07.49,2.18,1.25,3.26,1.23.92,0,2.11-.36,2.63-1.71.46-1.19.24-2.18-.23-3.14-.29-.6-.88-1.16-1.48-1.48-.78-.41-1.72-.51-2.55-.85-2.34-.95-3.89.09-3.84,2.9h0Z"/>
    <path class="st1" d="M98.13,187.75c-1.55-.05-2.15-.44-2.09-1.31.05-.72.68-1.16,1.46-1.04.89.14,1.05.71.63,2.35h0Z"/>
    <path class="st1" d="M222.36,188.98c-1.17-.79-1.47-1.5-.95-2.17.38-.5,1.24-.54,1.73-.08.56.52.31,1.28-.78,2.24h0Z"/>
    <path class="st1" d="M215.89,148.39c.56-.16,1.11-.43,1.67-.43.2,0,.61.65.56.94-.06.36-.57.96-.76.92-.55-.13-1.03-.53-1.53-.82.02-.2.04-.4.06-.61Z"/>
    <path class="st1" d="M100.35,142.89c.13-.1.37-.43.67-.48.53-.09,1.3.8,1.17,1.42-.06.32-.44.72-.75.81-.54.15-1.08-.65-1.09-1.74h0Z"/>
    <path class="st1" d="M209.93,143.01c.9-.27,1.58-.52,1.98.24.15.28.11.89-.08,1.05-.29.24-1.02.41-1.17.25-.36-.38-.49-.98-.73-1.54h0Z"/>
    <path class="st1" d="M94.51,142.39c.47-.34.9-.76,1.42-.99.16-.07.72.36.79.64.08.33-.13,1.04-.29,1.07-.56.08-1.16-.06-1.74-.12-.06-.2-.12-.4-.18-.6Z"/>
    <path class="st1" d="M216.25,142.04c.56,0,1.15-.11,1.66.05.21.07.42.77.31,1.06-.11.3-.76.72-.92.63-.5-.27-.87-.76-1.29-1.17.08-.19.16-.38.25-.57h-.01Z"/>
    <path class="st1" d="M77.86,165.5c.26.5.65.98.72,1.51.03.24-.58.56-.9.85-.27-.33-.73-.65-.77-1.01-.04-.42.28-.88.44-1.33l.5-.02h0Z"/>
    <path class="st1" d="M91.39,188.66c-.36-.44-.78-.82-.72-.92.3-.55.73-1.02,1.12-1.52.33.26.65.52.98.79-.41.5-.83,1-1.38,1.66h0Z"/>
    <path class="st1" d="M93.42,182.2c-.31,0-.71.12-.91-.03-.28-.22-.41-.63-.61-.96.24-.13.48-.38.71-.36.52.04,1.05.15,1.53.35.12.05.17.58.05.77-.12.2-.49.25-.74.37,0-.04-.02-.09-.03-.13h0Z"/>
    <path class="st1" d="M240.95,162.8c.42.35.91.65,1.23,1.07.09.12-.24.79-.5.88-.31.12-1.02-.02-1.08-.21-.16-.47-.05-1.02-.05-1.55.13-.07.27-.14.4-.21v.02Z"/>
    <path class="st1" d="M73.19,161.98c0,.49.09,1-.04,1.46-.05.18-.66.38-.88.28-.29-.13-.67-.67-.6-.84.2-.43.64-.74.98-1.1.18.07.36.14.54.2Z"/>
    <path class="st1" d="M237.08,159.57c-.23.43-.42.9-.73,1.25-.11.12-.7,0-.83-.18-.18-.24-.26-.88-.14-.95.41-.25.93-.33,1.4-.48.1.12.2.24.3.36h0Z"/>
    <path class="st1" d="M236.49,166.7c-.13.47-.19.98-.44,1.37-.09.15-.72.14-.93-.02-.22-.16-.41-.77-.3-.88.32-.35.8-.55,1.22-.81.15.11.3.23.45.34h0Z"/>
    <path class="st1" d="M78.2,159.49c-.34.26-.68.71-1.02.72-.27,0-.54-.55-.81-.86.29-.25.54-.64.87-.7.27-.06.62.27.93.42.01.14.02.28.04.42h-.01Z"/>
    <path class="st1" d="M215.92,186.49c.4.47.79.72.85,1.03.1.57-.29.99-.86.88-.3-.06-.7-.5-.72-.79s.38-.61.73-1.11h0Z"/>
    <path class="st1" d="M222.13,181.84c-.38.27-.74.61-1.17.75-.13.05-.57-.4-.64-.67-.06-.23.2-.78.35-.79.45-.03.91.13,1.36.22.03.16.07.32.1.48h0Z"/>
    <path class="st1" d="M96.61,147.43c.09.42.26.85.23,1.26-.01.17-.51.44-.74.4-.24-.04-.64-.45-.6-.61.1-.4.4-.76.62-1.13.16.02.33.05.49.07h0Z"/>
  </g>
</svg>