<?xml version="1.0" encoding="UTF-8"?>
<svg id="Vrstva_1" xmlns="http://www.w3.org/2000/svg" version="1.1" viewBox="0 0 160 160">
  <!-- Generator: Adobe Illustrator 29.4.0, SVG Export Plug-In . SVG Version: 2.1.0 Build 152)  -->
  <defs>
    <style>
      .st0 {
        fill: #030303;
      }

      .st1 {
        fill: #dfdfdf;
      }
    </style>
  </defs>
  <rect class="st0" x="0" y="-.56" width="160" height="160"/>
  <g>
    <path class="st1" d="M126.16,125.67c-.88-.18-1.71-.32-2.14-1.29-.17-.38-.65-.63-.98-.94-.5-.47-1.24-.72-1.39-1.52-.02-.12-.15-.25-.26-.3-1.42-.55-2.12-1.9-3.09-2.91-.79-.82-1.8-1.37-2.5-2.28-.78-1.02-1.61-2.02-2.53-2.91-1.2-1.16-2.51-2.19-3.77-3.29-.16-.14-.31-.3-.41-.49-.28-.55-.51-1.1-1.26-1.21-.2-.02-.35-.36-.53-.55-.36-.37-.43-.94-1.17-1.07-.43-.07-.74-.84-1.09-1.28-.07-.1-.11-.26-.21-.31-1.19-.68-2.23-1.49-2.78-2.82-.07-.16-.47-.18-.6-.37-.75-.7-1.52-1.39-2.24-2.12-.27-.27-.41-.67-.65-.97-.41-.48-.84-.93-1.28-1.38-.99-1.03-1.97-2.09-3-3.1-.74-.72-1.54-1.39-2.33-2.05-.14-.12-.4-.09-.63-.14-.26-.8-.31-1.84-1.48-1.67-.58-.65-1.08-1.23-1.61-1.78-.87-.89-1.75-1.75-2.65-2.62-.99-.96-1.98-1.9-2.96-2.87-.36-.36-.68-.76-1.06-1.11-.48-.45-.99-.87-1.51-1.25-.09-.07-.42.07-.56.2-1.58,1.52-3.13,3.07-4.71,4.6-.79.76-1.85,1.37-2.34,2.28-.5.94-1.47,1.26-1.93,2.03-.42.71-.99,1.1-1.59,1.57-.54.42-.89,1.06-1.4,1.52-.95.89-2,1.68-2.92,2.59-1.12,1.1-2.17,2.27-3.22,3.43-.24.26-.36.65-.55.99-1.13.07-1.36.31-1.7,1.48-.38.35-.75.7-1.13,1.03-1,.89-2.01,1.77-3,2.67-.25.23-.43.55-.67.79-.57.57-1.2,1.1-1.74,1.7-.61.69-1.04,1.59-1.76,2.14-1.5,1.14-2.89,2.39-4.25,3.68-.26.26-.45.6-.69.89-.17.2-.38.36-.58.53-.53.46-1.09.9-1.59,1.4-.44.45-.81.96-1.21,1.44-.11.12-.28.21-.33.35-.4,1.02-1.47,1.29-2.16,1.97-.78.76-1.47,1.6-2.23,2.39-1.27,1.33-2.54,2.67-3.85,3.97-.38.38-.86.7-1.34.94-.25.12-.6.03-.91.04.03-.38-.07-.89.13-1.12,1.61-1.8,3.28-3.54,4.96-5.27.25-.26.7-.32.94-.57.48-.47.88-1.03,1.32-1.54.47-.56.9-1.18,1.45-1.66,1.08-.97,2.44-1.71,3.32-2.82,1.18-1.51,2.78-2.59,3.91-4.16.68-.94,1.7-1.64,2.53-2.48.93-.93,1.8-1.9,2.74-2.82.94-.94,1.95-1.81,2.89-2.76.59-.6,1.1-1.27,1.64-1.9.08-.1.15-.29.24-.3.95-.12,1.27-.83,1.62-1.58.17-.36.66-.58.99-.87.85-.75,1.71-1.51,2.53-2.28.5-.47.97-1,1.46-1.49,1.02-1.02,2.06-2.02,3.06-3.05.39-.4.67-.89,1.04-1.3.65-.72,1.25-1.56,2.04-2.06.71-.46,1.09-1.18,1.72-1.61,1.18-.79,2.09-1.85,3.1-2.81,1.24-1.16,2.31-2.5,3.45-3.77-.68-.52-1.31-.99-1.91-1.47-.11-.08-.07-.31-.17-.43-.39-.49-.81-.95-1.21-1.44-.61-.75-1.57-1.08-2.04-2.13-.34-.77-1.09-1.62-2.19-1.87-.4-.09-.91-.56-1-.95-.3-1.23-1.34-1.49-2.28-2.07.12-1.11-.89-1.51-1.57-2.16-.65-.61-1.18-1.42-1.92-1.84-1.33-.76-2.06-2.14-3.31-2.96-.11-.07-.28-.12-.31-.21-.4-1.24-1.57-1.67-2.47-2.4-.07-.06-.13-.14-.2-.21-.5-.53-.99-1.06-1.5-1.58-.34-.36-.89-.64-1.01-1.04-.34-1.17-1.52-1.44-2.17-2.25-.26-.34-.65-.6-1.14-1.04-.27.15-.69.46-1.17.62-.72.24-1.51.28-2.2.56-1.32.54-2.7.36-4.02.36-1.75,0-3.54-.21-5.12-1.19-.33-.21-.79-.21-1.12-.41-.53-.33-1-.75-1.49-1.14-.07-.06-.13-.26-.17-.25-1,.17-1.2-1.01-2-1.2-.18-.04-.25-.45-.42-.63-.27-.29-.55-.65-.9-.77-.68-.22-.99-.78-1.38-1.27-.21-.25-.36-.57-.62-.73-1.3-.81-2.09-2.06-2.9-3.29-.89-1.37-1.82-2.74-2.51-4.21-.4-.85-.35-1.91-.5-2.88-.09-.58-.21-1.15-.29-1.73-.02-.18-.07-.45.02-.55.74-.8.29-1.74.38-2.62.07-.76.51-1.5.79-2.24.06-.15.22-.27.23-.41.13-1.15,1.18-1.66,1.73-2.51.26-.4.48-.84.8-1.18.31-.31.72-.52,1.11-.75.34-.2.68-.4,1.04-.52,1.23-.4,2.47-.33,3.74-.33,1.68,0,3.05.96,4.64,1.14.41.05.79.42,1.16.68.94.64,1.88,1.29,2.81,1.95.71.5,1.4,1.05,2.11,1.56.46.32.92.63,1.39.93.31.2.67.35.94.59,1.13.97,2.27,1.93,2.88,3.36.4.94.9,1.82,1.39,2.72.3.55.7,1.03.98,1.59.4.83.77,1.68,1.06,2.56.15.46.11.99.15,1.48.02.35-.04.73.08,1.03.71,1.76.41,3.51-.09,5.23-.17.6-.66,1.08-.92,1.66-.19.42-.25.91-.35,1.37-.02.1,0,.24.07.31.44.47.89.94,1.35,1.4,1.26,1.25,2.48,2.54,3.79,3.72.83.74,1.47,1.58,2.17,2.41,1.03,1.22,2.41,2.14,3.64,3.2.08.07.2.12.23.22.51,1.28,1.96,1.76,2.55,2.95.52,1.05,1.75,1.22,2.35,2.13.46.7.86,1.4,1.82,1.57.32.06.65.58.81.95.51,1.19,1.38,1.98,2.53,2.51.12.06.25.13.32.23.44.57.85,1.17,1.3,1.74.16.2.38.35.59.51.75.6,1.51,1.17,2.23,1.8.17.16.21.47.36.84.26-.13.66-.2.72-.38.35-1.15,1.45-1.56,2.19-2.31.22-.23.4-.5.62-.73,1.33-1.29,2.68-2.56,4.01-3.85.25-.24.43-.55.68-.79,1.13-1.13,2.27-2.24,3.39-3.36,1.51-1.51,3.03-3.03,4.52-4.56.78-.8,1.5-1.66,2.29-2.46.58-.58,1.22-1.1,1.85-1.63.55-.46,1.35-.78,1.63-1.35.52-1.06,1.63-1.47,2.22-2.31.94-1.35,2.3-2.18,3.36-3.35.26-.29.48-.63.76-.89.36-.33.78-.61,1.15-.89-.39-.79-.82-1.66-1.23-2.53-.34-.72-.18-1.36.21-2.04.23-.41.15-.99.31-1.45.39-1.13.83-2.23,1.26-3.33.07-.18.19-.35.28-.52.17-.31.34-.63.5-.94.2-.41.39-.81.57-1.22.09-.2.12-.43.25-.6,1.15-1.51,2.32-3.01,3.46-4.54.81-1.08,1.5-2.27,2.39-3.28.83-.93,1.85-1.68,2.79-2.52.8-.72,1.6-1.46,2.39-2.19.06-.05.07-.17.13-.2,1.29-.56,1.79-1.99,2.91-2.72.28-.18.48-.5.76-.66.31-.19.7-.41,1.03-.4.21,0,.57.42.57.65,0,.31-.25.65-.47.91-.55.63-1.13,1.23-1.76,1.89-.63-.23-1.01.18-1.27.84-.07.19-.17.46-.32.53-1.69.77-2.71,2.29-3.97,3.53-.49.48-.89,1.04-1.37,1.53-.94.94-1.93,1.84-2.82,2.81-.41.44-.65,1.03-.97,1.56-.19.32-.34.67-.56.96-.55.72-1.18,1.37-1.3,2.35-.03.27-.37.49-.54.75-.21.34-.41.69-.57,1.05-.25.53-.45,1.09-.7,1.62-.45.96-1.05,1.88-1.34,2.89-.26.93-.26,1.95-.26,2.92,0,.17.53.52.78.49.37-.04.73-.33,1.05-.56s.6-.54.9-.8c.11-.1.23-.18.34-.29.25-.26.49-.53.74-.79.36-.38.7-.77,1.08-1.13.8-.77,1.63-1.51,2.43-2.29.22-.22.33-.57.55-.8.47-.5.97-.97,1.47-1.44.5-.46,1.06-.87,1.52-1.37,1.15-1.23,2.14-2.64,3.43-3.68.88-.71,1.45-1.75,2.56-2.24.62-.27,1.01-1.04,1.53-1.56.55-.55,1.18-1.05,1.71-1.63.72-.78,1.38-1.61,2.09-2.42.26-.3.56-.56.86-.83.43-.38.97-.42,1.26.05.18.31.19.95-.02,1.21-.54.66-1.27,1.16-1.88,1.77-.67.67-1.28,1.41-1.96,2.07-.64.63-1.35,1.18-1.98,1.8-.43.43-.78.94-1.34,1.63-.54.05-1.03.62-1.37,1.41-.06.14-.25.24-.39.35-.13.09-.3.14-.41.25-1.04.99-2.02,2.05-3.15,2.94-1.23.96-1.68,2.69-3.34,3.2-.26.08-.36.65-.61.89-.8.72-1.66,1.37-2.47,2.09-.25.22-.34.61-.58.86-.68.7-1.42,1.34-2.09,2.05-.23.25-.38.63-.44.97-.02.12.36.29.56.45.34.27.68.55.94.76.52.18.97.36,1.42.49.24.07.51.1.76.06.53-.08,1.05-.31,1.58-.33.7-.03,1.23-.19,1.79-.7.55-.5,1.39-.64,2.05-1.03,1.27-.76,2.55-1.55,3.75-2.42.77-.56,1.4-1.32,2.11-1.97,1.02-.93,2.13-1.77,3.08-2.76,1.14-1.18,2.5-2.12,3.47-3.53.46-.67.84-1.84,2.05-1.9.12,0,.3-.26.32-.43.18-1.2,1.32-1.64,1.95-2.48.19-.25.46-.45.68-.67.4-.39.84-.41,1.23-.06.41.36.38.82.02,1.23-.68.75-1.37,1.49-2.07,2.24-.09.1-.17.26-.28.28-1.03.26-1.23,1.11-1.6,1.83-.27.27-.55.55-.83.83-.13.13-.22.32-.36.42-1.03.71-1.9,1.56-2.67,2.57-.76,1-1.67,2.01-2.73,2.65-.89.53-1.53,1.31-2.3,1.91-1.08.85-2.25,1.55-3.37,2.33-1.07.75-2.09,1.57-3.21,2.23-.61.36-1.41.41-2.09.66-.51.2-.99.5-1.58.82-.75-.45-1.63-.83-2.52-.05-.64-.12-.89-1.32-1.79-.52-.41-.51-.76-1.03-1.18-1.47-.59-.61-.92-.52-1.28.21-.12.23-.28.54-.49.6-.94.25-1.24,1.12-1.82,1.71-.75.75-1.58,1.44-2.32,2.22-.5.54-.92,1.17-1.36,1.76-.07.1-.11.23-.17.36-.05-.07-.1-.12-.16-.19-.31.2-.67.34-.93.6-.67.68-1.31,1.39-1.93,2.12-.31.37-.56.79-.88,1.13-.46.46-.93.92-1.39,1.38-.02-.02-.03-.03-.05-.04-.26.23-.55.44-.79.69-.7.7-1.38,1.42-2.08,2.13-.33.34-.6.84-1,1-1.29.5-1.76,1.79-2.69,2.62-1.04.94-2.1,1.85-3.1,2.83-.75.73-1.42,1.56-2.16,2.3s-1.63,1.48-2.38,2.28c-.65.7-1.21,1.5-1.9,2.37-.14.02-.5.06-1.13.14.5.7.85,1.32,1.32,1.82,1.13,1.19,2.33,2.33,3.49,3.49.09.09.11.27.22.33,1.92,1.07,2.98,3.07,4.74,4.32.2.14.28.44.41.67.09.17.12.45.25.49.91.34,1.45,1.1,2.11,1.74.13.13.34.22.41.36.67,1.35,1.99,2.06,2.98,3.1.75.78,1.47,1.59,2.21,2.38.07.07.14.21.22.22,1.2.17,1.55,1.27,2.26,2,.92.95,1.97,1.78,2.93,2.69.46.44.85.95,1.29,1.42.25.26.54.5.8.75.76.7,1.68,1.29,2.24,2.12,1.03,1.52,2.57,2.53,3.65,4.01.79,1.08,2,1.85,2.97,2.81.91.89,1.76,1.85,2.65,2.76.24.25.49.48.74.72.57.55,1.14,1.11,1.71,1.67,1.66,1.61,3.35,3.2,4.97,4.85.44.45,1.03.97.56,1.9l.05-.05ZM53.42,49.19c.05-.28.18-.8.22-1.33.09-1.37-.28-2.77.23-4.14.06-.16-.02-.49-.16-.6-.67-.52-.58-1.28-.71-1.98-.03-.17-.12-.31-.18-.47-.35-.74-.7-1.47-1.04-2.2-.02-.06.04-.16.02-.22-.08-.36-.12-.76-.29-1.08-.34-.63-.76-1.22-1.15-1.82-.07-.11-.17-.21-.26-.31-.23-.24-.46-.46-.7-.7-.21-.22-.4-.44-.6-.65-.15-.15-.38-.26-.44-.44-.41-1.13-1.48-1.67-2.27-2.4-1.3-1.2-2.93-2.04-4.43-3.03-.22-.14-.49-.3-.73-.29-.8.02-1.38-.35-1.98-.83-.38-.31-.94-.65-1.35-.58-.55.11-.98-.02-1.42-.22-1.61-.75-3.14-.03-4.69.23-.47.91-1.72.93-2.17,1.93-.36.82-1.13,1.48-1.38,2.31-.29.94-.18,2-.74,2.92-.16.26.02.72.07,1.08.03.26.18.55.12.79-.18.81.03,1.53.21,2.33.37,1.73.85,3.34,2.14,4.63.09.09.12.24.19.36.24.41.41.92.75,1.2.58.47.68,1.34,1.49,1.64.26.1.29.69.55.92,1.11.97,2.28,1.88,3.41,2.84,1.06.91,2.13,1.8,3.3,2.57.6.4,1.09.84,1.86.9.77.07,1.56.14,2.3.37,1.95.61,3.88-.07,5.83.07.18.02.37-.18.56-.27.28-.12.6-.19.84-.36.5-.39,1.07-.77,1.42-1.28.28-.41.27-1.01.46-1.49.06-.15.36-.2.72-.38h-.02Z"/>
    <path class="st1" d="M83.35,50.94c.9.18,1.59.02,2.22-.75.41-.5,1.19-.69,1.77-1.07.75-.5,1.46-1.05,2.14-1.54-.23-.8-1-1.35-.58-2.23.03-.06.02-.19-.02-.23-.87-.71-.22-1.82-.7-2.64-.06-.11-.06-.26-.04-.4.19-1.42.38-2.86.61-4.28.04-.26.24-.51.38-.76.07-.14.22-.26.26-.4.45-1.71,1.31-3.28,2.35-4.25.04-.03.07-.1.12-.12,1.1-.3,1.61-1.24,2.3-2.01.26-.28.89-.39,1.31-.31.55.09.59.61.59,1.16,0,.89.38,1.82.2,2.65-.22,1.03-.13,2.02-.18,3.03-.06,1.19-.28,2.38-.52,3.56-.28,1.39-.64,2.76-1.02,4.13-.09.32-.53.36-.77.72-.55.82-.85,1.9-1.94,2.36-.46.2-.75.79-1.16,1.17-.62.58-1.26,1.16-1.93,1.7-.51.41-1.07.78-1.62,1.16-.3.21-.55.45-1.03.3-.33-.1-.78.08-1.14.21-.45.16-.87.4-1.3.6-.56.27-.55.68-.38,1.22.12.41.09.89.09,1.32,0,.21-.12.41-.1.61.06.94.22,1.87.21,2.8-.02,1.21-.22,2.42-.23,3.63,0,.58-.06,1.03-.63,1.31-.77-.35-.56-1.09-.65-1.69-.07-.52.05-1.06.02-1.59-.02-.5-.12-.99-.2-1.48-.07,0-.14,0-.21.02.1-.19.22-.37.29-.57.16-.43.02-.66-.45-.51-.83.26-1.56.26-2.11-.54-.08-.12-.34-.09-.51-.16-.7-.26-1.47-.44-2.09-.84-.41-.26-.58-.89-.95-1.26-.7-.7-1.5-1.3-2.22-1.98-.99-.94-1.71-2.09-2.3-3.32-.07-.14-.14-.31-.26-.4-1.4-1.06-1.76-2.48-1.63-4.16.06-.77-.19-1.56-.29-2.35-.02-.21-.03-.43,0-.64.21-1.59.47-3.17.63-4.77.07-.7-.04-1.36.46-2,.72-.91,1.78-1,2.52-.11.5.6,1.03,1.18,1.54,1.77.62.71,1.35,1.36,1.81,2.17.48.84.75,1.81,1.03,2.76.55,1.9.31,3.85-.03,5.73-.26,1.44-.47,2.96-1.56,4.15-.17.19-.13.83.06,1.06.47.56,1.03,1.08,1.65,1.5.75.51,1.56.92,2.35,1.37.09.05.17.15.26.18.66.2,1.32.38,2.14.61-.04-.39-.12-.91-.13-1.43-.02-.38.03-.76.08-1.14.02-.2.22-.42.17-.58-.54-1.66.02-3.38-.31-5.06-.17-.81.25-1.74.12-2.56-.13-.78.31-1.61.14-2.1-.36-1.03-.03-1.88.08-2.81.02-.17-.04-.36-.13-.52-.45-.78-.89-1.56-1.39-2.3-.42-.63-.92-1.2-1.38-1.8-.12-.15-.29-.27-.34-.44-.32-1.12-.75-2.24-.9-3.38-.18-1.39-.23-2.83-.12-4.22.09-1.14.45-2.28.8-3.38.2-.6.63-1.13.97-1.68.5-.81,1-1.61,1.51-2.42.06-.09.12-.18.15-.28.32-1.37,1.15-2.41,2.17-3.33,1-.91,1.95-.73,2.42.53.51,1.39.99,2.79,1.46,4.2.43,1.26.93,2.51,1.23,3.8.39,1.66.67,3.37-.03,5.05,0,.02-.04.05-.03.07.48,1.68-.82,2.91-1.23,4.35-.39,1.37-1.61,2.52-2.51,3.74-.26.34-.75.5-1.04.83-.24.27-.47.68-.45,1.02.06.94.55,1.85.03,2.81-.07.13.11.39.13.6.04.41.05.82.08,1.23.03.41.11.84.1,1.25-.04,1.48-.12,2.96-.18,4.43v-.07ZM82.53,38.99c1.12-1.62,2.11-3.05,3.09-4.49.3-.44.73-.89.79-1.37.13-1.13.6-2.16.55-3.36-.05-1.16-.15-2.35-.09-3.49.07-1.6-.94-2.81-1.02-4.33-.04-.84-.76-1.64-1.18-2.45-.16-.3-.32-.59-.51-.93-.72.92-1.65,1.69-2.01,2.67-.52,1.39-2,2.38-1.75,4.07,0,.05-.04.1-.06.15-.28.76-.81,1.53-.78,2.28.06,1.26-.62,2.44-.07,3.76.57,1.37.7,2.93,1.23,4.33.39,1.03,1.1,1.93,1.83,3.15h0ZM74.2,50.84c.11-.23.24-.51.36-.8.39-.93.88-1.8,1.22-2.76.57-1.65-.08-3.12-.26-4.65-.09-.82-.15-1.71-.99-2.43-.6-.52-.7-1.65-1.34-2.33-.53-.57-1.05-1.15-1.57-1.73-.09.04-.18.07-.26.12-.11.65-.26,1.29-.3,1.95-.08,1.43,0,2.89-.17,4.31-.15,1.28-.07,2.48.41,3.68.24.6.46,1.19.7,1.8.17.42.23.93.51,1.25.5.6,1.13,1.08,1.72,1.62h-.02ZM90.62,46.63c.71-.81,1.44-1.63,2.16-2.46.07-.07.14-.19.13-.28-.08-1.26,1.24-2.18.86-3.52-.02-.05.1-.13.12-.2.12-.47.31-.94.34-1.42.06-.83.02-1.66.02-2.48,0-.11.02-.22.07-.31.34-.61.55-1.23.16-1.9-.06-.1.05-.31.07-.46.08-.48.17-.96.25-1.44-.12-.06-.23-.11-.35-.17-.33.35-.68.69-.99,1.05-.35.41-.66.84-.99,1.25-.47.6-1.09,1.14-1.39,1.83-.49,1.13-.75,2.36-1.13,3.54-.42,1.27,0,2.53.02,3.8,0,1.07.42,2.13.65,3.17h0Z"/>
    <path class="st1" d="M81.19,115.23c0,1.18.02,2.28,0,3.39-.03,1.34-.12,2.69-.14,4.03,0,.41.19.84.2,1.25,0,.64-.07,1.27-.13,2.04-.03-.02.05.07.15.1,1.61.58,2.06,2.12,2.72,3.41.48.94.59,2.07.87,3.11.26.98.58,1.95.76,2.94.12.67.07,1.37.08,2.05,0,.16-.11.34-.06.48.46,1.3.18,2.66-.21,3.82-.42,1.27-.46,2.69-1.42,3.85-.71.85-1.01,2.04-1.51,3.08-.14.28-.32.55-.57.77-.09,1.13-.22,1.27-1.61,1.53-.17-.83-.33-1.66-.53-2.49-.06-.26-.17-.53-.31-.77-.31-.5-.82-.91-.67-1.62.04-.18-.07-.43-.18-.6-.46-.7-.92-1.39-.96-2.28,0-.19-.21-.36-.28-.55-.17-.4-.31-.8-.45-1.21-.09-.27-.06-.6-.2-.84-.44-.74-.4-1.51-.37-2.32.02-.46-.31-.94-.28-1.38.06-.74-.21-1.55.36-2.2.02-.02.03-.06.02-.07-.6-.83-.02-1.6.13-2.38.06-.3.24-.56.34-.85.18-.55.34-1.12.52-1.66.19-.58.33-1.19.63-1.71.32-.57.83-1.03,1.18-1.59.17-.26.19-.63.22-.96.08-.71.18-1.42.17-2.14,0-.96-.1-1.93-.15-2.89-.02-.31.02-.63-.05-.93-.22-1.03.49-2.02.05-3.07-.14-.33.03-.79.06-1.19.07-1.26.17-2.52.21-3.78,0-.29-.2-.58-.31-.88-.23.2-.46.41-.84.73-1.44-.48-2.19,1.14-3.45,1.61-.44.17-.71.73-1.13,1.04-.21.16-.45.26-.77.46.35.46.79.91,1.09,1.44.31.55.73,1.05.65,1.84-.07.77.26,1.57.34,2.37.03.35-.09.71-.17,1.06-.11.46-.28.89-.35,1.35-.08.57.06,1.19-.6,1.56-.13.07-.21.31-.24.5-.23,1.18-.89,2.15-1.59,3.05-.41.53-1.1.84-1.6,1.32-.66.65-1.26,1.32-2.04,1.88-.68.47-1.29.42-1.79.16-.5-.26-.89-.85-.81-1.59.15-1.55.2-3.11.36-4.66.06-.55.34-1.09.5-1.64.05-.17.04-.37.09-.55.07-.27.16-.55.26-.81.06-.15.18-.29.2-.44.17-1.47,1.03-2.65,1.62-3.94.19-.42.62-.72.88-1.12.45-.7.83-1.43,1.28-2.12.13-.2.42-.3.64-.44.09-.06.26-.06.28-.12.35-1.21,1.61-1.1,2.25-1.95.35-.46,1.14-.57,1.7-.89.34-.19.6-.52.93-.74.34-.22.72-.55,1.07-.55.89.02,1.51-1.31,1.27-1.96-.03-.1-.14-.22-.11-.3.34-.85-.26-1.76.23-2.64.22-.37.05-.94.17-1.4.07-.29.36-.52.55-.78.19.24.51.46.55.71.12.97.15,1.95.21,2.93.04.72.12,1.45.12,2.17s-.12,1.42-.15,2.14c-.02.89,0,1.78,0,2.45.49.39.79.72,1.18.92.5.26,1.12.35,1.58.66.91.6,1.75,1.3,2.62,1.97.23.18.4.46.65.6,1.03.6,1.71,1.47,2.29,2.48.84,1.46,1.84,2.84,2.72,4.28.28.46.5.99.61,1.51.28,1.43,1.25,2.63,1.27,4.16.02,1,.33,2,.52,3,.02.13.14.26.12.38-.22,1.23-.39,2.47-.7,3.68-.15.6-1.65.57-2.19-.07-.61-.72-1.13-1.53-1.7-2.28-.35-.46-.73-.9-1.08-1.36-.12-.17-.31-.35-.32-.53-.09-1.36-1.11-2.27-1.62-3.42-.23-.53-.55-1.07-.58-1.62-.08-1.29-.1-2.6,0-3.9.06-.73.41-1.43.6-2.15.14-.51.26-1.03.36-1.55.02-.07-.08-.22-.16-.26-.99-.42-1.11-1.84-2.42-2-.5-.07-1.01-.68-1.37-1.15-.61-.8-1.26-1.33-2.3-.98v.02ZM81.03,147.55c.47-.7,1.05-1.44,1.51-2.25.37-.65.61-1.38.88-2.09.17-.47.77-.87.33-1.49-.02-.03.12-.16.15-.26.11-.34.25-.68.28-1.03.07-.69.08-1.38.12-2.08,0-.16.12-.37.05-.47-.52-.77-.26-1.61-.24-2.43.02-.5.08-.95-.43-1.27-.1-.06-.08-.31-.12-.47-.07-.24-.12-.49-.22-.72-.12-.26-.32-.49-.41-.75-.29-.97-.53-1.95-.82-2.91-.07-.24-.24-.45-.38-.66-.15-.22-.35-.41-.47-.65-.13-.25-.21-.54-.31-.8-.09-.02-.17-.05-.26-.07-.23.45-.48.89-.7,1.33-.17.33-.24.75-.48,1.01-.69.76-1.18,1.58-1.26,2.62-.05.7-.12,1.41-.17,2.12-.05.57-.12,1.13-.14,1.71-.02.43.12.87.06,1.28-.2,1.5-.2,2.95.71,4.25.08.12.06.31.11.46.43,1.25.85,2.5,1.32,3.73.24.63.57,1.23.89,1.9h0ZM72.43,115.75h-.33c-1.75,1.86-2.37,4.34-3.25,6.61-.9,2.31-.74,4.86-.92,7.45.75-.57,1.38-.96,1.9-1.47,1.34-1.34,2.06-3.1,2.98-4.71.07-.12.16-.27.12-.37-.27-.82.6-1,.79-1.5.21-.52.03-1.19.03-1.79,0-.02.04-.04.05-.07.02-.15.08-.34.02-.45-.35-.6-.02-1.43-.71-1.94-.21-.15-.17-.6-.29-.9-.11-.3-.26-.58-.39-.86h0ZM88.71,121.04c-.5.89-.55,1.7-.7,2.53-.33,1.91.28,3.63.76,5.37.25.89.42,1.92,1.47,2.4.16.07.22.41.29.63.43,1.21,1.17,2.14,2.32,2.73,0-2.47-.02-4.88-1.08-7.05-1.03-2.12-1.32-4.59-3.06-6.61h0Z"/>
    <path class="st1" d="M140.62,84.17c-.43.23-.94.39-1.28.72-.94.88-2.21,1.03-3.26,1.63-.76.43-1.37-.02-2.05-.14-.59-.11-1.2-.22-1.79-.18-.74.05-1.38-.02-1.92-.58-.51-.54-1.1-1.03-1.56-1.61-.24-.31-.26-.78-.39-1.18-.43.07-.94.2-1.43.2-.89,0-1.78,0-2.66-.12-1.44-.19-2.83-.22-4.27.15-.63.16-1.37-.18-2.07-.25-.33-.03-.68.08-1.01.07-.73-.02-1.45-.12-2.18-.12s-1.42.08-2.12.14c-.42.03-.97.26-1.24.07-.99-.68-2.05.07-3.01-.4-.04.07-.08.15-.12.23.43.35.81.78,1.29,1.02,1.27.62,2.38,1.47,3.43,2.42.8.75,1.64,1.46,2.49,2.15.13.12.43.02.6.12,1.04.67,2.09,1.35,3.1,2.06.22.15.3.48.49.83.21-.28.33-.61.58-.75.46-.25.96-.4,1.46-.55.28-.08.6-.02.87-.14,2.05-.86,3.96-.3,5.58.91,1,.75,1.9,1.85,1.66,3.37-.03.2.07.41.11.63.04.21.16.44.11.62-.53,1.95-1.65,3.63-4.21,3.06-.46-.1-.95-.06-1.42,0-.46.04-.85.23-1.24-.29-.21-.28-.79-.25-1.14-.46-.65-.36-1.33-.72-1.85-1.23-1.27-1.26-1.46-3.01-1.25-4.35-.4-.28-.71-.51-1.03-.74-1.18-.79-2.39-1.55-3.55-2.38-.96-.69-1.84-1.47-2.78-2.17-1.01-.74-2.07-1.4-3.07-2.15-.7-.53-1.35-1.14-2.07-1.76-.16-.02-.48-.04-.79-.07-.89-.11-1.85-.46-2.67-.26-.55.14-1.01.39-1.61.22-1.05-.29-1.16-.43-.91-1.58.79-.02,1.5-.4,2.44.02.74.33,1.82-.22,2.74-.19.95.03,1.97-.47,2.86.25.04.03.1.05.15.04.93-.12,1.85-.25,2.79-.37.18-.02.41-.11.55-.05.79.35,1.18-.1,1.6-.65.31-.41.23-.34.5-.76.63-.99,1.54-1.58,2.48-2.19.2-.13.24-.59.26-.9.02-.16-.15-.34-.26-.49-.52-.71-.9-1.47-.59-2.38.51-1.52.85-3.16,2.5-3.98.07-.03.14-.1.22-.11.87-.08,1.75-.16,2.62-.22.4-.02.85-.15,1.19,0,.74.32,1.59.64,2.07,1.23.48.59.91,1.58.75,2.26-.33,1.47-.22,3.29-2.08,4.02-.2.08-.33.33-.49.51-.36.39-.66.75-1.32.62-.31-.06-.71.26-1.07.41-.66-.17-1.45-.63-2.09-.47-.62.16-1.1.91-1.61,1.45-.15.16-.17.45-.26.73-1.01-.08-.85.31-1.23,1.02,1.78,0,3.6-.19,5.37.05,2.27.3,4.48-.28,6.71-.15.36.02.72.17,1.09.26.41-2.07,1.97-3.19,3.68-3.91.85-.36,2.01-.99,3.08-.17.12.09.32.15.46.12,1.76-.45,3.05.7,4.36,1.46.6.35.87,1.37,1.16,2.14.18.47.17,1.03.15,1.55-.02.62-.14,1.24-.22,1.86-.11-.05-.22-.1-.31-.15h-.04ZM133.58,78.6c-1.8.56-3.17,1.55-4.06,3.17.27.4.79.84.89,1.37.12.63.46.75.91.94.44.19.84.48,1.27.65.42.16.89.28,1.33.27.63-.02,1.27-.12,1.87-.28,1.36-.36,2.93-.32,3.61-1.95.05-.12.22-.18.26-.3.07-.22.17-.5.09-.69-.16-.32-.5-.56-.65-.89-.63-1.26-1.52-1.94-2.99-2.24-.81-.17-1.39-.28-1.99.24-.25-.13-.46-.26-.52-.29h-.02ZM125.56,97.4c1.56-.03,2.24-.68,2.53-2.19.35-1.81-1.14-3.56-2.94-3.72-.58-.05-1.15-.12-1.73-.15-.45-.02-.92-.04-1.33.09-.36.12-.65.47-.99.68-.65.39-1.03,1.63-.55,2.19.55.63,1.19,1.23,1.9,1.69.87.55,1.84.95,2.77,1.4.09.04.22,0,.32,0v.02ZM119.91,70.91c-.1.2-.22.54-.26.53-.96-.22-1.47.66-1.61,1.13-.31.96-.2,2.06-.25,3.1,0,.05.11.12.17.16,1.29.62,2.64.78,3.95.16.37-.17.55-.75.82-1.14.22-.31.41-.63.65-.92.29-.34.43-1.9.12-2.19-.62-.58-1.54-.79-2.23-.7-.49.06-.89-.05-1.36-.12h0Z"/>
    <path class="st1" d="M18.43,83.06c.06-.43.23-.82.12-1.09-.45-1.15.05-2,.77-2.79.84-.91,1.93-1.24,3.14-1.38.9-.1,1.95.27,2.62-.02,1.06-.46,1.8.36,2.7.19.17-.03.37.17.56.26.39.17.78.48,1.17.5.94.03,1.41.42,1.42,1.37,0,.24.08.47.16.86.68-.07,1.38-.19,2.08-.19.85,0,1.71.1,2.57.13.55.02,1.1.02,1.66,0,.75-.05,1.51-.15,2.26-.23.08,0,.17-.05.24-.02,1.62.75,3.36-.58,5.02.3-1.05-1.42-2.35-2.52-3.78-3.57-.56.57-1.21.55-2.04.17-.64-.29-1.46-.35-2.17-.26-1.18.14-1.63-.81-2.38-1.32-.77-.52-.74-1.51-1.23-2.2-.2-.27-.39-.55-.69-.99.26-.82.52-1.81.94-2.74.17-.39.67-.66,1.08-.89,1.28-.73,2.65-.56,3.98-.21.9.25,1.77.65,2.64,1,.17.07.31.22.41.36.47.62.94,1.24,1.37,1.89.12.17.21.41.19.6-.08.89-.04,1.82-.35,2.62-.39,1.01.23,1.46.75,2,1.12,1.18,2.65,1.9,3.6,3.28.08.12.37.15.55.14,1.19-.08,2.36.14,3.58-.14.96-.22,2.06.25,3.1.26,1.14.02,2.29-.13,3.44-.18.46-.02.94-.08,1.36.05.26.08.56.5.55.75-.02.29-.31.76-.56.81-.56.12-1.1.23-1.78.07-1.27-.3-2.65-.16-3.98-.16-.17,0-.36.27-.49.46-.97,1.35-2.25,2.24-3.8,2.81-.26.09-.44.36-.66.56-.57.5-1.08,1.12-1.72,1.47-.63.34-.94.99-1.48,1.3-.79.45-1.41,1-2,1.67-.3.34-.91.38-1.37.58-.67.29-.7.87-.62,1.47.11.82.02,1.6-.46,2.29-.54.79-1.08,1.6-1.68,2.35-.16.2-.54.22-.81.31-1.23.43-2.24,1.42-3.68,1.28-.26-.02-.54.19-.7.25-.87-.54-1.69-1.05-2.52-1.57-.09-.06-.22-.12-.25-.2-.26-1-1.18-1.68-1.16-2.86.02-1.08.36-1.95,1.03-2.72.43-.5.83-.97,1.57-1.18.48-.13.84-.7,1.42-.94,1.76-.71,3.1-.8,4.7-.07.2.09.35.32.47.52.46.77,1.18.89,1.75.23.39-.44.71-.93,1.1-1.36.17-.19.43-.31.65-.47.44-.33.87-.67,1.3-1.01.02-.02.03-.05.05-.06.72-.46,1.47-.88,2.16-1.38.8-.58,1.55-1.23,2.33-1.85.37-.3.75-.6,1.13-.88.35-.25.71-.46,1.08-.7-.55-.42-7.78-.33-8.85.08-.62-.69-1.18-.67-1.87-.02-1.79-.42-3.47-.41-5.14-.1-.51-.05-1.02-.09-1.51-.14-.45-.05-.9-.17-1.35-.16-.95,0-.99.98-1.48,1.47-.41.42-.89.81-1.39,1.11-.79.46-1.61.91-2.46,1.23-.5.19-1.09.17-1.65.17-.53,0-1.05-.16-1.58-.17-1.42-.02-2.8-.2-3.85-1.22-.56-.54-.94-1.27-1.33-1.84l.02.03ZM30.39,81.66c-.55-.63-.97-1.14-1.42-1.61-.2-.22-.46-.49-.7-.51-1.56-.17-3.15-.21-4.7-.41-.99-.13-1.8.13-2.55.7-.28.21-.69.46-.73.74-.11.74-.09,1.5-.05,2.24.06,1.08.43,1.42,1.5,1.56.52.07,1.05.1,1.56.22,1.62.37,2.62.26,4.11-.5.11-.06.27.02.4,0,.26-.05.55-.07.77-.21.94-.58,1.84-1.21,1.83-2.2l-.02-.02ZM34.93,97.22c.84-.46,2.12-.24,2.81-1.41.25-.41.82-.61,1.1-1.01.38-.52.84-1.13.88-1.73.12-1.41-1.21-1.54-2.11-1.99-.32-.16-.7-.19-1.06-.26-.06,0-.13.1-.21.11-.12.02-.28.07-.35,0-.55-.47-.99-.07-1.5.13-.81.31-1.23,1.02-1.8,1.59-.65.65-.83,1.34-.71,2.26.12.93,1.18,1.19,1.27,2.09,0,.02.15.04.22.05.43.05.85.09,1.45.15h0ZM34.5,72.51c-.12.66.18,1.34.94,1.83.31.2.55.54.89.69.89.41,1.8,1.03,2.7,1.02.76,0,1.75-.3,2.18-1.42.38-.99.2-1.8-.19-2.6-.24-.5-.73-.96-1.23-1.23-.65-.34-1.42-.42-2.11-.7-1.94-.79-3.22.07-3.18,2.4h0Z"/>
    <path class="st1" d="M31.32,102.16c-1.28-.04-1.78-.36-1.73-1.08.04-.6.56-.96,1.21-.86.74.12.87.59.52,1.95h0Z"/>
    <path class="st1" d="M134.16,103.17c-.97-.65-1.22-1.24-.79-1.8.31-.41,1.03-.45,1.43-.07.46.43.26,1.06-.65,1.85h0Z"/>
    <path class="st1" d="M128.8,69.57c.46-.13.92-.36,1.38-.36.17,0,.5.54.46.78-.05.3-.47.79-.63.76-.46-.11-.85-.44-1.27-.68.02-.17.03-.33.05-.5Z"/>
    <path class="st1" d="M33.15,65.02c.11-.08.31-.36.55-.4.44-.07,1.08.66.97,1.18-.05.26-.36.6-.62.67-.45.12-.89-.54-.9-1.44h0Z"/>
    <path class="st1" d="M123.87,65.12c.75-.22,1.31-.43,1.64.2.12.23.09.74-.07.87-.24.2-.84.34-.97.21-.3-.31-.41-.81-.6-1.27h0Z"/>
    <path class="st1" d="M28.32,64.61c.39-.28.75-.63,1.18-.82.13-.06.6.3.65.53.07.27-.11.86-.24.89-.46.07-.96-.05-1.44-.1-.05-.17-.1-.33-.15-.5Z"/>
    <path class="st1" d="M129.1,64.32c.46,0,.95-.09,1.37.04.17.06.35.64.26.88-.09.25-.63.6-.76.52-.41-.22-.72-.63-1.07-.97.07-.16.13-.31.21-.47h0Z"/>
    <path class="st1" d="M14.54,83.74c.22.41.54.81.6,1.25.02.2-.48.46-.75.7-.22-.27-.6-.54-.64-.84-.03-.35.23-.73.36-1.1l.41-.02h0Z"/>
    <path class="st1" d="M25.74,102.91c-.3-.36-.65-.68-.6-.76.25-.46.6-.84.93-1.26.27.22.54.43.81.65-.34.41-.69.83-1.14,1.37h0Z"/>
    <path class="st1" d="M27.42,97.56c-.26,0-.59.1-.75-.02-.23-.18-.34-.52-.5-.79.2-.11.4-.31.59-.3.43.03.87.12,1.27.29.1.04.14.48.04.64-.1.17-.41.21-.61.31,0-.03-.02-.07-.02-.11h0Z"/>
    <path class="st1" d="M149.54,81.5c.35.29.75.54,1.02.89.07.1-.2.65-.41.73-.26.1-.84-.02-.89-.17-.13-.39-.04-.84-.04-1.28.11-.06.22-.12.33-.17v.02Z"/>
    <path class="st1" d="M10.67,80.82c0,.41.07.83-.03,1.21-.04.15-.55.31-.73.23-.24-.11-.55-.55-.5-.7.17-.36.53-.61.81-.91.15.06.3.12.45.17Z"/>
    <path class="st1" d="M146.34,78.83c-.19.36-.35.75-.6,1.03-.09.1-.58,0-.69-.15-.15-.2-.22-.73-.12-.79.34-.21.77-.27,1.16-.4.08.1.17.2.25.3h0Z"/>
    <path class="st1" d="M145.85,84.73c-.11.39-.16.81-.36,1.13-.07.12-.6.12-.77-.02-.18-.13-.34-.64-.25-.73.26-.29.66-.46,1.01-.67.12.09.25.19.37.28h0Z"/>
    <path class="st1" d="M14.82,78.76c-.28.22-.56.59-.84.6-.22,0-.45-.46-.67-.71.24-.21.45-.53.72-.58.22-.05.51.22.77.35,0,.12.02.23.03.35h0Z"/>
    <path class="st1" d="M128.82,101.11c.33.39.65.6.7.85.08.47-.24.82-.71.73-.25-.05-.58-.41-.6-.65s.31-.5.6-.92h0Z"/>
    <path class="st1" d="M133.97,97.26c-.31.22-.61.5-.97.62-.11.04-.47-.33-.53-.55-.05-.19.17-.65.29-.65.37-.02.75.11,1.13.18.02.13.06.26.08.4h0Z"/>
    <path class="st1" d="M30.06,68.78c.07.35.22.7.19,1.04,0,.14-.42.36-.61.33-.2-.03-.53-.37-.5-.5.08-.33.33-.63.51-.94.13.02.27.04.41.06h0Z"/>
  </g>
</svg>