<?xml version="1.0" encoding="UTF-8"?>
<svg id="Vrstva_2" data-name="Vrstva 2" xmlns="http://www.w3.org/2000/svg" viewBox="0 0 979.15 426.43">
  <defs>
    <style>
      .cls-1 {
        fill: #dfdfdf;
      }

      .cls-2 {
        fill: #dfdfde;
      }
    </style>
  </defs>
  <g>
    <path class="cls-2" d="M370.05,345.91c-2.78-.58-5.4-1.02-6.77-4.09-.55-1.21-2.05-1.99-3.1-2.96-1.6-1.5-3.94-2.28-4.41-4.83-.08-.37-.47-.79-.84-.94-4.49-1.73-6.72-6.03-9.79-9.21-2.52-2.6-5.69-4.36-7.92-7.24-2.47-3.23-5.12-6.4-8.03-9.21-3.8-3.67-7.95-6.95-11.94-10.42-.5-.45-1-.94-1.29-1.55-.89-1.73-1.63-3.49-3.99-3.83-.63-.08-1.1-1.15-1.68-1.76-1.15-1.18-1.36-2.99-3.7-3.38-1.36-.24-2.34-2.65-3.46-4.07-.24-.31-.34-.81-.66-.97-3.78-2.15-7.06-4.72-8.82-8.95-.21-.5-1.5-.58-1.92-1.18-2.39-2.23-4.83-4.41-7.11-6.72-.87-.87-1.29-2.13-2.07-3.07-1.29-1.52-2.68-2.94-4.07-4.38-3.15-3.28-6.24-6.64-9.5-9.81-2.34-2.28-4.88-4.41-7.4-6.51-.45-.37-1.26-.29-1.99-.45-.81-2.55-1-5.82-4.7-5.3-1.84-2.05-3.41-3.91-5.12-5.64-2.75-2.81-5.56-5.56-8.4-8.32-3.12-3.04-6.27-6.03-9.39-9.1-1.15-1.13-2.15-2.41-3.36-3.52-1.52-1.42-3.12-2.75-4.8-3.96-.29-.21-1.34.21-1.78.63-5.01,4.83-9.92,9.73-14.93,14.59-2.49,2.41-5.88,4.33-7.43,7.22-1.57,2.96-4.67,3.99-6.11,6.43-1.34,2.26-3.12,3.49-5.04,4.99-1.71,1.34-2.83,3.36-4.43,4.83-3.02,2.81-6.32,5.33-9.26,8.21-3.54,3.49-6.87,7.19-10.21,10.86-.76.84-1.15,2.05-1.73,3.15-3.57.24-4.3,1-5.38,4.7-1.21,1.1-2.39,2.2-3.59,3.28-3.17,2.83-6.38,5.61-9.52,8.47-.79.73-1.36,1.73-2.13,2.49-1.81,1.81-3.8,3.49-5.51,5.38-1.94,2.18-3.31,5.04-5.59,6.77-4.75,3.62-9.16,7.58-13.46,11.68-.84.81-1.42,1.92-2.18,2.81-.52.63-1.21,1.15-1.84,1.68-1.68,1.47-3.46,2.86-5.04,4.43-1.39,1.42-2.57,3.04-3.83,4.57-.34.39-.89.66-1.05,1.1-1.26,3.23-4.64,4.09-6.85,6.24-2.47,2.41-4.67,5.06-7.06,7.58-4.04,4.22-8.05,8.47-12.2,12.59-1.21,1.21-2.73,2.2-4.25,2.96-.79.39-1.92.1-2.89.13.1-1.21-.24-2.81.42-3.54,5.12-5.69,10.39-11.23,15.72-16.71.79-.81,2.2-1.02,2.99-1.81,1.52-1.5,2.78-3.25,4.17-4.88,1.5-1.78,2.86-3.73,4.59-5.25,3.44-3.07,7.74-5.4,10.52-8.95,3.75-4.8,8.82-8.21,12.38-13.17,2.15-2.99,5.38-5.19,8.03-7.84,2.94-2.94,5.72-6.03,8.68-8.95,2.99-2.96,6.19-5.75,9.16-8.74,1.86-1.89,3.49-4.01,5.19-6.03.26-.31.47-.92.76-.94,3.02-.39,4.01-2.62,5.14-5.01.55-1.15,2.1-1.84,3.15-2.75,2.7-2.39,5.4-4.78,8.03-7.24,1.6-1.5,3.07-3.17,4.62-4.72,3.23-3.23,6.53-6.4,9.71-9.68,1.23-1.26,2.13-2.83,3.31-4.12,2.07-2.28,3.96-4.93,6.48-6.53,2.26-1.44,3.46-3.75,5.46-5.12,3.73-2.52,6.61-5.88,9.84-8.89,3.94-3.67,7.32-7.92,10.94-11.96-2.15-1.65-4.15-3.12-6.06-4.67-.34-.26-.24-1-.55-1.36-1.23-1.55-2.57-3.02-3.83-4.57-1.94-2.39-4.99-3.44-6.45-6.74-1.08-2.44-3.46-5.14-6.93-5.93-1.26-.29-2.89-1.78-3.17-3.02-.94-3.91-4.25-4.72-7.24-6.56.39-3.52-2.83-4.78-4.99-6.85-2.05-1.94-3.73-4.49-6.09-5.82-4.22-2.41-6.53-6.8-10.49-9.37-.34-.21-.89-.37-1-.66-1.26-3.94-4.99-5.3-7.82-7.61-.24-.18-.42-.45-.63-.66-1.57-1.68-3.15-3.36-4.75-5.01-1.08-1.13-2.81-2.02-3.2-3.31-1.08-3.7-4.83-4.57-6.87-7.14-.84-1.08-2.05-1.89-3.62-3.31-.87.47-2.18,1.47-3.7,1.97-2.28.76-4.78.89-6.98,1.78-4.17,1.71-8.55,1.15-12.75,1.15-5.56,0-11.23-.66-16.21-3.78-1.05-.66-2.49-.66-3.54-1.31-1.68-1.05-3.17-2.36-4.72-3.62-.24-.18-.42-.81-.52-.79-3.17.55-3.8-3.2-6.35-3.8-.58-.13-.79-1.42-1.34-1.99-.87-.92-1.76-2.07-2.86-2.44-2.15-.71-3.12-2.47-4.38-4.01-.66-.79-1.15-1.81-1.97-2.31-4.12-2.57-6.64-6.53-9.18-10.44-2.81-4.36-5.77-8.68-7.95-13.35-1.26-2.7-1.1-6.06-1.6-9.13-.29-1.84-.66-3.65-.92-5.48-.08-.58-.24-1.42.08-1.76,2.34-2.55.92-5.51,1.21-8.29.24-2.41,1.63-4.75,2.52-7.08.18-.47.68-.87.73-1.31.42-3.65,3.73-5.25,5.48-7.95.81-1.26,1.52-2.65,2.55-3.73.97-1,2.28-1.65,3.52-2.36,1.08-.63,2.15-1.26,3.31-1.65,3.88-1.26,7.82-1.05,11.86-1.05,5.33,0,9.66,3.04,14.69,3.62,1.29.16,2.49,1.34,3.67,2.15,2.99,2.02,5.96,4.09,8.89,6.19,2.26,1.6,4.43,3.33,6.69,4.93,1.44,1.02,2.91,1.99,4.41,2.94,1,.63,2.13,1.1,2.99,1.86,3.57,3.07,7.19,6.11,9.13,10.65,1.26,2.96,2.86,5.77,4.41,8.61.94,1.73,2.23,3.28,3.1,5.04,1.26,2.62,2.44,5.33,3.36,8.11.47,1.47.34,3.12.47,4.7.08,1.1-.13,2.31.26,3.28,2.26,5.59,1.31,11.12-.29,16.58-.55,1.89-2.1,3.44-2.91,5.27-.6,1.34-.79,2.89-1.1,4.36-.05.31,0,.76.21.97,1.39,1.5,2.83,2.96,4.28,4.43,3.99,3.96,7.84,8.05,12.02,11.78,2.62,2.34,4.64,5.01,6.87,7.64,3.28,3.86,7.64,6.8,11.54,10.15.26.21.63.39.73.68,1.63,4.07,6.22,5.59,8.08,9.34,1.65,3.33,5.56,3.86,7.45,6.74,1.44,2.2,2.73,4.43,5.77,4.99,1.02.18,2.05,1.84,2.57,3.02,1.63,3.78,4.38,6.27,8.03,7.95.39.18.79.42,1.02.73,1.39,1.81,2.7,3.7,4.12,5.51.5.63,1.21,1.1,1.86,1.63,2.36,1.89,4.78,3.7,7.06,5.69.55.5.66,1.5,1.13,2.65.81-.42,2.1-.63,2.28-1.21,1.1-3.65,4.59-4.93,6.93-7.32.71-.73,1.26-1.6,1.97-2.31,4.22-4.09,8.5-8.11,12.7-12.2.79-.76,1.36-1.76,2.15-2.52,3.57-3.57,7.19-7.08,10.76-10.65,4.8-4.8,9.6-9.6,14.33-14.46,2.47-2.55,4.75-5.27,7.27-7.79,1.84-1.84,3.86-3.49,5.85-5.17,1.73-1.44,4.28-2.47,5.17-4.28,1.65-3.36,5.17-4.67,7.03-7.32,2.96-4.28,7.29-6.9,10.65-10.63.81-.92,1.52-1.99,2.41-2.81,1.15-1.05,2.47-1.94,3.65-2.83-1.23-2.52-2.6-5.27-3.91-8.03-1.08-2.28-.58-4.3.66-6.48.73-1.31.47-3.12,1-4.59,1.23-3.57,2.62-7.06,3.99-10.55.24-.58.6-1.1.89-1.65.52-1,1.08-1.99,1.57-2.99.63-1.29,1.23-2.57,1.81-3.86.29-.63.39-1.36.79-1.89,3.65-4.8,7.35-9.55,10.97-14.4,2.57-3.44,4.75-7.19,7.58-10.39,2.62-2.94,5.88-5.33,8.84-7.98,2.55-2.28,5.06-4.62,7.58-6.93.18-.16.24-.55.42-.63,4.09-1.78,5.67-6.3,9.24-8.63.89-.58,1.52-1.57,2.41-2.1,1-.6,2.2-1.29,3.28-1.26.66,0,1.81,1.34,1.81,2.05,0,.97-.79,2.07-1.5,2.89-1.73,1.99-3.59,3.88-5.59,5.98-1.99-.73-3.2.58-4.01,2.65-.24.6-.52,1.47-1.02,1.68-5.35,2.44-8.58,7.27-12.59,11.2-1.55,1.52-2.81,3.31-4.33,4.85-2.96,2.99-6.11,5.82-8.95,8.92-1.29,1.39-2.07,3.28-3.07,4.96-.6,1.02-1.08,2.13-1.78,3.04-1.76,2.28-3.73,4.36-4.12,7.45-.1.87-1.18,1.55-1.71,2.39-.66,1.08-1.29,2.18-1.81,3.33-.79,1.68-1.42,3.46-2.2,5.14-1.42,3.04-3.33,5.96-4.25,9.16-.84,2.94-.81,6.17-.81,9.26,0,.55,1.68,1.65,2.47,1.55,1.18-.13,2.31-1.05,3.33-1.78s1.92-1.71,2.86-2.55c.34-.31.73-.58,1.08-.92.79-.81,1.55-1.68,2.34-2.52,1.13-1.21,2.2-2.44,3.41-3.57,2.55-2.44,5.17-4.78,7.69-7.27.71-.71,1.05-1.81,1.76-2.55,1.5-1.57,3.07-3.07,4.64-4.57,1.57-1.47,3.36-2.75,4.83-4.33,3.65-3.88,6.77-8.37,10.86-11.65,2.78-2.26,4.59-5.54,8.11-7.08,1.97-.87,3.2-3.31,4.85-4.96,1.76-1.76,3.75-3.33,5.43-5.17,2.28-2.47,4.38-5.12,6.61-7.66.84-.94,1.78-1.78,2.73-2.62,1.36-1.21,3.07-1.34,3.99.16.58.97.6,3.02-.05,3.83-1.71,2.1-4.01,3.67-5.96,5.61-2.13,2.13-4.07,4.46-6.22,6.56-2.02,1.99-4.28,3.73-6.27,5.72-1.36,1.36-2.47,2.96-4.25,5.17-1.71.16-3.28,1.97-4.33,4.46-.18.45-.79.76-1.23,1.1-.42.29-.94.45-1.29.79-3.31,3.12-6.4,6.51-9.97,9.31-3.88,3.04-5.33,8.53-10.6,10.15-.84.26-1.13,2.05-1.94,2.81-2.55,2.28-5.27,4.33-7.82,6.61-.79.71-1.08,1.94-1.84,2.73-2.15,2.2-4.51,4.25-6.61,6.51-.73.79-1.21,1.99-1.39,3.07-.05.37,1.15.92,1.78,1.42,1.08.87,2.15,1.76,2.96,2.41,1.65.58,3.07,1.15,4.51,1.55.76.21,1.63.31,2.41.18,1.68-.26,3.33-.97,5.01-1.05,2.2-.1,3.91-.6,5.67-2.2,1.73-1.57,4.41-2.02,6.51-3.28,4.04-2.41,8.08-4.91,11.89-7.66,2.44-1.78,4.43-4.2,6.69-6.24,3.23-2.94,6.74-5.61,9.76-8.74,3.62-3.73,7.92-6.72,10.99-11.2,1.47-2.13,2.68-5.82,6.51-6.01.37,0,.94-.84,1.02-1.36.58-3.8,4.17-5.19,6.17-7.84.6-.79,1.44-1.42,2.15-2.13,1.26-1.23,2.68-1.31,3.91-.18,1.29,1.15,1.21,2.6.05,3.88-2.15,2.39-4.36,4.72-6.56,7.08-.29.31-.55.81-.89.89-3.25.81-3.91,3.52-5.06,5.8-.87.87-1.76,1.73-2.62,2.62-.42.42-.68,1.02-1.15,1.34-3.28,2.26-6.01,4.96-8.45,8.16-2.41,3.17-5.3,6.38-8.66,8.4-2.81,1.68-4.85,4.15-7.29,6.06-3.44,2.7-7.14,4.91-10.68,7.37-3.38,2.39-6.61,4.99-10.18,7.06-1.94,1.13-4.46,1.29-6.61,2.1-1.63.63-3.15,1.6-5.01,2.6-2.39-1.42-5.17-2.62-8-.16-2.02-.39-2.81-4.2-5.67-1.65-1.31-1.63-2.41-3.28-3.75-4.67-1.86-1.94-2.91-1.65-4.07.66-.37.73-.89,1.71-1.55,1.89-2.96.79-3.94,3.54-5.77,5.4-2.39,2.39-5.01,4.57-7.35,7.03-1.6,1.71-2.91,3.7-4.3,5.59-.24.31-.34.73-.52,1.13-.16-.21-.31-.39-.5-.6-1,.63-2.13,1.08-2.94,1.89-2.13,2.15-4.15,4.41-6.11,6.72-1,1.18-1.78,2.52-2.78,3.59-1.47,1.47-2.94,2.91-4.41,4.38-.05-.05-.1-.1-.16-.13-.84.73-1.73,1.39-2.49,2.18-2.2,2.23-4.38,4.49-6.59,6.74-1.05,1.08-1.92,2.68-3.17,3.17-4.09,1.6-5.59,5.67-8.53,8.32-3.31,2.96-6.66,5.88-9.84,8.97-2.39,2.31-4.49,4.93-6.85,7.29s-5.17,4.7-7.56,7.24c-2.07,2.23-3.83,4.75-6.03,7.5-.45.05-1.6.18-3.57.45,1.6,2.2,2.7,4.17,4.2,5.77,3.59,3.78,7.37,7.4,11.05,11.07.29.29.34.87.68,1.05,6.09,3.38,9.45,9.73,15.01,13.7.63.45.89,1.39,1.31,2.13.29.52.39,1.42.79,1.55,2.89,1.08,4.59,3.49,6.69,5.51.42.42,1.08.68,1.31,1.15,2.13,4.28,6.3,6.53,9.45,9.81,2.39,2.47,4.67,5.04,7.01,7.56.24.24.45.66.71.68,3.8.52,4.91,4.04,7.16,6.32,2.91,3.02,6.24,5.64,9.29,8.53,1.47,1.39,2.7,3.02,4.09,4.49.79.84,1.71,1.57,2.55,2.36,2.41,2.2,5.33,4.09,7.11,6.72,3.28,4.83,8.13,8.03,11.57,12.7,2.52,3.41,6.32,5.88,9.42,8.89,2.89,2.83,5.59,5.85,8.4,8.76.76.79,1.55,1.52,2.34,2.28,1.81,1.76,3.62,3.52,5.43,5.3,5.27,5.12,10.63,10.15,15.74,15.38,1.39,1.42,3.25,3.07,1.78,6.01l.16-.16ZM139.5,103.53c.16-.89.58-2.55.68-4.22.29-4.36-.89-8.79.73-13.12.18-.5-.08-1.55-.5-1.89-2.13-1.65-1.84-4.07-2.26-6.27-.1-.52-.37-1-.58-1.5-1.1-2.34-2.23-4.64-3.31-6.98-.08-.18.13-.5.08-.71-.26-1.15-.37-2.41-.92-3.41-1.08-1.99-2.41-3.86-3.65-5.77-.24-.34-.52-.66-.81-.97-.73-.76-1.47-1.47-2.2-2.23-.66-.68-1.26-1.39-1.92-2.07-.47-.47-1.21-.84-1.39-1.39-1.29-3.57-4.7-5.3-7.19-7.61-4.12-3.8-9.29-6.48-14.04-9.6-.68-.45-1.55-.94-2.31-.92-2.55.08-4.38-1.1-6.27-2.62-1.21-.97-2.99-2.07-4.28-1.84-1.76.34-3.1-.05-4.49-.71-5.12-2.39-9.94-.1-14.88.73-1.5,2.89-5.46,2.94-6.87,6.11-1.15,2.6-3.57,4.7-4.38,7.32-.92,2.99-.58,6.35-2.34,9.26-.5.81.08,2.28.21,3.44.1.84.58,1.73.39,2.49-.58,2.57.1,4.85.66,7.37,1.18,5.48,2.7,10.6,6.77,14.67.29.29.37.76.6,1.13.76,1.29,1.29,2.91,2.36,3.8,1.84,1.5,2.15,4.25,4.72,5.19.81.31.92,2.18,1.76,2.91,3.52,3.07,7.24,5.96,10.81,9,3.36,2.89,6.74,5.69,10.47,8.13,1.92,1.26,3.46,2.65,5.9,2.86,2.44.21,4.96.45,7.29,1.18,6.17,1.94,12.31-.24,18.47.21.58.05,1.18-.58,1.78-.87.89-.39,1.92-.6,2.65-1.15,1.6-1.23,3.38-2.44,4.51-4.07.89-1.29.87-3.2,1.47-4.72.18-.47,1.13-.63,2.28-1.21l-.05.03Z"/>
    <path class="cls-2" d="M234.37,109.07c2.86.58,5.04.08,7.03-2.39,1.31-1.6,3.78-2.18,5.61-3.38,2.36-1.57,4.62-3.33,6.77-4.88-.73-2.55-3.17-4.28-1.84-7.06.1-.18.08-.6-.08-.73-2.75-2.26-.71-5.77-2.2-8.37-.18-.34-.18-.84-.13-1.26.6-4.51,1.21-9.05,1.94-13.56.13-.84.76-1.63,1.21-2.41.24-.45.71-.81.84-1.26,1.42-5.43,4.15-10.39,7.45-13.49.13-.1.21-.31.37-.37,3.49-.94,5.12-3.94,7.29-6.38.81-.89,2.83-1.23,4.15-1,1.76.29,1.86,1.94,1.86,3.67,0,2.81,1.21,5.77.63,8.4-.71,3.28-.42,6.4-.58,9.6-.18,3.78-.89,7.56-1.65,11.28-.89,4.41-2.02,8.76-3.23,13.09-.29,1.02-1.68,1.15-2.44,2.28-1.76,2.6-2.7,6.01-6.14,7.48-1.47.63-2.39,2.49-3.67,3.7-1.97,1.84-3.99,3.67-6.11,5.38-1.63,1.31-3.38,2.47-5.14,3.67-.94.66-1.73,1.42-3.25.94-1.05-.31-2.47.26-3.62.66-1.42.5-2.75,1.26-4.12,1.92-1.78.87-1.73,2.15-1.21,3.86.39,1.31.29,2.81.29,4.2,0,.66-.37,1.31-.31,1.94.18,2.96.71,5.93.66,8.87-.05,3.83-.71,7.66-.73,11.49,0,1.84-.18,3.28-1.99,4.15-2.44-1.1-1.78-3.46-2.05-5.35-.21-1.65.16-3.36.08-5.04-.08-1.57-.39-3.15-.63-4.7-.21,0-.45.03-.66.05.31-.6.68-1.18.92-1.81.5-1.36.08-2.1-1.42-1.63-2.62.81-4.93.84-6.69-1.71-.26-.37-1.08-.29-1.63-.5-2.23-.84-4.64-1.39-6.64-2.65-1.31-.84-1.84-2.83-3.02-3.99-2.23-2.2-4.75-4.12-7.03-6.27-3.15-2.99-5.43-6.61-7.29-10.52-.21-.45-.45-.97-.81-1.26-4.43-3.36-5.59-7.84-5.17-13.2.18-2.44-.6-4.96-.92-7.45-.08-.66-.1-1.36,0-2.02.66-5.04,1.5-10.05,1.99-15.11.21-2.2-.13-4.3,1.47-6.35,2.28-2.89,5.64-3.17,7.98-.34,1.57,1.92,3.25,3.73,4.88,5.61,1.97,2.26,4.28,4.3,5.75,6.87,1.52,2.65,2.39,5.75,3.25,8.74,1.76,6.03,1,12.2-.1,18.16-.84,4.57-1.5,9.39-4.96,13.14-.55.6-.42,2.62.18,3.36,1.5,1.78,3.28,3.41,5.22,4.75,2.36,1.63,4.96,2.91,7.45,4.36.29.16.52.47.84.58,2.1.63,4.2,1.21,6.77,1.94-.13-1.23-.37-2.89-.42-4.54-.05-1.21.1-2.41.26-3.62.08-.63.71-1.34.55-1.84-1.71-5.25.05-10.7-1-16.03-.52-2.57.79-5.51.37-8.11-.42-2.47,1-5.09.45-6.66-1.15-3.28-.1-5.96.26-8.89.08-.52-.13-1.15-.42-1.65-1.42-2.47-2.81-4.93-4.41-7.29-1.34-1.99-2.91-3.8-4.38-5.72-.37-.47-.92-.87-1.08-1.39-1.02-3.54-2.39-7.08-2.86-10.7-.58-4.41-.73-8.97-.39-13.38.29-3.62,1.42-7.22,2.55-10.7.63-1.92,1.99-3.57,3.07-5.33,1.57-2.57,3.17-5.12,4.78-7.66.18-.29.39-.58.47-.89,1.02-4.33,3.65-7.64,6.87-10.55,3.17-2.89,6.17-2.31,7.66,1.68,1.63,4.41,3.12,8.84,4.62,13.3,1.36,3.99,2.94,7.95,3.88,12.04,1.23,5.27,2.13,10.68-.1,16-.03.08-.13.16-.1.24,1.52,5.33-2.6,9.24-3.88,13.77-1.23,4.36-5.09,8-7.95,11.86-.81,1.08-2.39,1.57-3.31,2.62-.76.87-1.5,2.15-1.42,3.23.18,2.96,1.73,5.88.1,8.92-.24.42.34,1.23.42,1.89.13,1.31.16,2.6.26,3.91.1,1.31.34,2.65.31,3.96-.13,4.7-.37,9.37-.58,14.04v-.21ZM231.78,71.18c3.54-5.14,6.69-9.66,9.79-14.22.94-1.39,2.31-2.81,2.49-4.33.42-3.57,1.89-6.85,1.73-10.65-.16-3.67-.47-7.45-.29-11.07.24-5.06-2.96-8.92-3.23-13.72-.13-2.65-2.41-5.19-3.73-7.77-.5-.94-1.02-1.86-1.63-2.94-2.28,2.91-5.22,5.35-6.38,8.45-1.65,4.41-6.32,7.53-5.54,12.91,0,.16-.13.31-.18.47-.89,2.41-2.57,4.85-2.47,7.24.18,3.99-1.97,7.74-.24,11.91,1.81,4.36,2.2,9.29,3.88,13.72,1.23,3.25,3.49,6.11,5.8,10h-.03ZM205.35,108.75c.34-.73.76-1.63,1.13-2.55,1.23-2.94,2.78-5.69,3.86-8.76,1.81-5.22-.26-9.89-.81-14.75-.29-2.6-.47-5.4-3.15-7.71-1.92-1.65-2.23-5.22-4.25-7.4-1.68-1.81-3.33-3.65-4.99-5.48-.29.13-.58.24-.84.37-.34,2.05-.84,4.09-.94,6.17-.26,4.54,0,9.16-.55,13.67-.47,4.07-.21,7.87,1.31,11.65.76,1.89,1.47,3.78,2.2,5.69.52,1.34.73,2.94,1.63,3.96,1.6,1.89,3.59,3.41,5.46,5.14h-.05ZM257.41,95.42c2.26-2.57,4.57-5.17,6.85-7.79.21-.24.45-.6.42-.89-.26-3.99,3.94-6.9,2.73-11.15-.05-.16.31-.42.39-.63.39-1.5.97-2.96,1.08-4.49.18-2.62.05-5.25.08-7.87,0-.34.05-.71.21-1,1.08-1.94,1.76-3.88.5-6.03-.18-.31.16-.97.24-1.47.26-1.52.52-3.04.79-4.57-.37-.18-.73-.34-1.1-.52-1.05,1.1-2.15,2.18-3.12,3.33-1.1,1.29-2.1,2.65-3.15,3.96-1.5,1.92-3.46,3.62-4.41,5.8-1.55,3.59-2.36,7.48-3.59,11.23-1.34,4.01,0,8.03.05,12.04.03,3.38,1.34,6.74,2.07,10.05h-.03Z"/>
    <path class="cls-2" d="M227.53,312.82c0,3.73.05,7.24,0,10.73-.1,4.25-.39,8.53-.45,12.78,0,1.31.6,2.65.63,3.96,0,2.02-.24,4.04-.42,6.45-.1-.08.16.21.47.31,5.09,1.84,6.53,6.72,8.61,10.81,1.52,2.99,1.86,6.56,2.75,9.87.81,3.1,1.84,6.17,2.41,9.31.39,2.13.21,4.33.26,6.51,0,.5-.34,1.08-.18,1.52,1.47,4.12.58,8.42-.66,12.1-1.34,4.04-1.44,8.53-4.49,12.2-2.26,2.7-3.2,6.48-4.78,9.76-.45.89-1.02,1.73-1.81,2.44-.29,3.57-.71,4.04-5.09,4.85-.55-2.62-1.05-5.27-1.68-7.9-.18-.84-.55-1.68-1-2.44-.97-1.6-2.6-2.89-2.13-5.14.13-.58-.24-1.36-.58-1.92-1.44-2.23-2.91-4.41-3.04-7.22-.03-.6-.66-1.15-.89-1.76-.52-1.26-1-2.55-1.42-3.83-.29-.87-.18-1.92-.63-2.65-1.39-2.34-1.26-4.8-1.18-7.35.05-1.47-1-2.96-.89-4.38.18-2.34-.66-4.91,1.15-6.98.05-.05.1-.18.08-.24-1.89-2.62-.05-5.06.42-7.56.18-.94.76-1.78,1.08-2.7.58-1.76,1.08-3.54,1.65-5.27.6-1.84,1.05-3.78,1.99-5.43,1.02-1.81,2.62-3.28,3.73-5.04.52-.84.6-1.99.71-3.04.26-2.26.58-4.51.55-6.77,0-3.04-.31-6.11-.47-9.16-.05-1,.05-1.99-.16-2.94-.68-3.25,1.55-6.4.16-9.73-.45-1.05.1-2.52.18-3.78.24-3.99.52-7.98.66-11.99,0-.92-.63-1.84-.97-2.78-.73.63-1.47,1.29-2.65,2.31-4.57-1.52-6.95,3.62-10.94,5.12-1.39.52-2.26,2.31-3.57,3.31-.66.5-1.42.84-2.44,1.44,1.1,1.44,2.49,2.89,3.46,4.57,1,1.76,2.31,3.33,2.07,5.82-.24,2.44.81,4.99,1.08,7.5.1,1.1-.29,2.26-.55,3.36-.34,1.44-.89,2.83-1.1,4.28-.26,1.81.18,3.78-1.89,4.93-.42.24-.66,1-.76,1.57-.73,3.73-2.81,6.82-5.04,9.68-1.31,1.68-3.49,2.68-5.06,4.2-2.1,2.05-3.99,4.2-6.48,5.96-2.15,1.5-4.09,1.34-5.67.5-1.6-.84-2.81-2.7-2.57-5.04.47-4.91.63-9.87,1.15-14.77.18-1.76,1.08-3.46,1.6-5.19.16-.55.13-1.18.29-1.73.24-.87.5-1.73.81-2.57.18-.47.58-.92.63-1.39.52-4.64,3.28-8.4,5.14-12.49.6-1.34,1.97-2.28,2.78-3.54,1.42-2.2,2.62-4.54,4.07-6.72.42-.63,1.34-.94,2.02-1.39.29-.18.84-.18.89-.39,1.1-3.83,5.09-3.49,7.14-6.17,1.1-1.47,3.62-1.81,5.38-2.83,1.08-.6,1.89-1.65,2.94-2.34,1.08-.71,2.28-1.76,3.38-1.73,2.81.08,4.8-4.15,4.04-6.22-.1-.31-.45-.71-.34-.94,1.08-2.7-.81-5.59.73-8.37.68-1.18.16-2.99.52-4.43.24-.92,1.15-1.65,1.76-2.47.6.76,1.63,1.44,1.73,2.26.39,3.07.47,6.19.66,9.29.13,2.28.37,4.59.37,6.87s-.39,4.51-.47,6.8c-.08,2.83,0,5.64,0,7.77,1.55,1.23,2.52,2.28,3.73,2.91,1.6.84,3.54,1.1,5.01,2.1,2.89,1.92,5.56,4.12,8.32,6.24.73.58,1.26,1.44,2.05,1.89,3.25,1.89,5.4,4.67,7.27,7.87,2.68,4.62,5.82,9,8.63,13.56.89,1.47,1.6,3.15,1.94,4.8.89,4.54,3.96,8.34,4.04,13.2.05,3.17,1.05,6.35,1.65,9.5.08.42.45.84.39,1.21-.68,3.91-1.23,7.82-2.2,11.65-.47,1.92-5.22,1.81-6.93-.21-1.94-2.28-3.57-4.85-5.38-7.24-1.1-1.47-2.31-2.86-3.44-4.3-.39-.52-1-1.1-1.02-1.68-.29-4.3-3.52-7.19-5.14-10.84-.73-1.68-1.73-3.38-1.84-5.14-.26-4.09-.31-8.24,0-12.36.18-2.31,1.29-4.54,1.89-6.82.45-1.63.81-3.25,1.13-4.91.05-.24-.26-.71-.5-.81-3.15-1.34-3.52-5.82-7.66-6.35-1.6-.21-3.2-2.15-4.33-3.65-1.94-2.55-3.99-4.22-7.29-3.1l-.03.05ZM227,415.28c1.5-2.2,3.33-4.57,4.8-7.14,1.18-2.07,1.94-4.38,2.78-6.64.55-1.5,2.44-2.75,1.05-4.72-.08-.1.37-.5.47-.81.34-1.08.79-2.15.89-3.28.24-2.18.26-4.38.39-6.59.03-.5.37-1.18.16-1.5-1.65-2.44-.84-5.12-.76-7.71.05-1.6.26-3.02-1.36-4.04-.31-.18-.26-1-.39-1.5-.21-.76-.37-1.55-.68-2.28-.37-.84-1.02-1.55-1.29-2.39-.92-3.07-1.68-6.17-2.6-9.24-.24-.76-.76-1.42-1.21-2.1-.47-.71-1.1-1.31-1.5-2.05-.42-.79-.66-1.71-.97-2.55-.29-.08-.55-.16-.84-.24-.73,1.42-1.52,2.81-2.23,4.22-.52,1.05-.76,2.36-1.52,3.2-2.18,2.41-3.75,5.01-3.99,8.32-.16,2.23-.37,4.46-.55,6.72-.16,1.81-.39,3.59-.45,5.4-.05,1.36.37,2.75.18,4.07-.63,4.75-.63,9.34,2.26,13.49.26.39.18,1,.34,1.47,1.36,3.96,2.7,7.92,4.17,11.83.76,1.99,1.81,3.88,2.81,6.01l.03.03ZM199.74,314.48h-1.05c-5.54,5.9-7.5,13.75-10.31,20.96-2.86,7.32-2.34,15.4-2.91,23.61,2.36-1.81,4.38-3.04,6.01-4.67,4.25-4.25,6.53-9.81,9.45-14.93.21-.37.5-.87.39-1.18-.87-2.6,1.89-3.17,2.49-4.75.66-1.65.1-3.78.1-5.67,0-.08.13-.13.16-.21.05-.47.26-1.08.05-1.42-1.1-1.89-.05-4.54-2.26-6.14-.66-.47-.55-1.92-.92-2.86-.34-.94-.81-1.84-1.23-2.73l.03-.03ZM251.35,331.24c-1.6,2.83-1.73,5.38-2.2,8.03-1.05,6.06.89,11.49,2.41,17.03.79,2.83,1.34,6.09,4.64,7.61.5.24.68,1.29.92,1.99,1.36,3.83,3.7,6.77,7.35,8.66,0-7.82-.08-15.48-3.44-22.35-3.28-6.72-4.17-14.56-9.71-20.94l.03-.03Z"/>
    <path class="cls-2" d="M415.88,214.38c-1.36.73-2.96,1.23-4.07,2.28-2.96,2.78-7.01,3.28-10.34,5.17-2.41,1.36-4.36-.05-6.51-.45-1.86-.34-3.8-.71-5.67-.58-2.34.16-4.38-.05-6.09-1.84-1.63-1.71-3.49-3.25-4.93-5.09-.76-.97-.84-2.47-1.23-3.75-1.36.21-2.96.63-4.54.63-2.81,0-5.64,0-8.42-.37-4.57-.6-8.97-.68-13.54.47-1.99.5-4.36-.58-6.56-.79-1.05-.1-2.15.26-3.2.21-2.31-.08-4.59-.39-6.9-.39s-4.49.26-6.72.45c-1.34.1-3.07.81-3.94.21-3.12-2.15-6.51.24-9.55-1.26-.13.24-.26.47-.39.73,1.36,1.1,2.57,2.47,4.09,3.23,4.04,1.97,7.56,4.64,10.86,7.66,2.55,2.36,5.19,4.62,7.9,6.82.42.37,1.36.05,1.89.37,3.31,2.13,6.61,4.28,9.81,6.53.68.47.94,1.52,1.55,2.62.66-.89,1.05-1.94,1.84-2.36,1.44-.79,3.04-1.26,4.62-1.73.89-.26,1.92-.08,2.75-.45,6.51-2.73,12.54-.94,17.68,2.89,3.17,2.39,6.01,5.88,5.27,10.68-.1.63.24,1.31.34,1.99.13.66.5,1.39.34,1.97-1.68,6.17-5.22,11.49-13.35,9.71-1.44-.31-3.02-.18-4.51-.03-1.44.13-2.7.73-3.94-.92-.66-.89-2.49-.79-3.62-1.44-2.05-1.15-4.22-2.28-5.85-3.91-4.04-3.99-4.62-9.55-3.96-13.8-1.26-.89-2.26-1.63-3.28-2.34-3.75-2.52-7.58-4.91-11.26-7.53-3.04-2.18-5.82-4.67-8.82-6.87-3.2-2.34-6.56-4.43-9.73-6.82-2.23-1.68-4.28-3.62-6.56-5.59-.5-.05-1.52-.13-2.52-.24-2.83-.34-5.88-1.44-8.47-.81-1.76.45-3.2,1.23-5.12.71-3.33-.92-3.67-1.36-2.89-5.01,2.52-.05,4.75-1.26,7.74.08,2.34,1.05,5.77-.71,8.68-.6,3.02.1,6.24-1.5,9.08.79.13.1.31.16.47.13,2.94-.39,5.88-.79,8.84-1.18.58-.08,1.29-.34,1.73-.16,2.49,1.1,3.73-.31,5.06-2.07,1-1.31.73-1.08,1.57-2.41,1.99-3.12,4.88-5.01,7.87-6.93.63-.42.76-1.86.84-2.86.05-.5-.47-1.08-.81-1.55-1.65-2.26-2.86-4.67-1.86-7.53,1.63-4.83,2.7-10.02,7.92-12.62.24-.1.45-.31.68-.34,2.75-.26,5.54-.5,8.29-.71,1.26-.08,2.7-.47,3.78,0,2.34,1.02,5.04,2.02,6.56,3.88,1.52,1.86,2.89,5.01,2.39,7.16-1.05,4.64-.71,10.42-6.59,12.75-.63.26-1.05,1.05-1.55,1.63-1.13,1.23-2.1,2.39-4.2,1.97-1-.18-2.26.84-3.38,1.31-2.1-.55-4.59-1.99-6.61-1.5-1.97.5-3.49,2.89-5.09,4.59-.47.5-.52,1.42-.81,2.31-3.2-.26-2.7,1-3.91,3.23,5.64,0,11.41-.6,17.03.16,7.19.94,14.19-.89,21.28-.47,1.15.08,2.28.55,3.46.84,1.31-6.56,6.24-10.1,11.65-12.38,2.7-1.15,6.38-3.15,9.76-.55.37.29,1.02.47,1.47.37,5.59-1.42,9.66,2.2,13.83,4.62,1.92,1.1,2.75,4.36,3.67,6.77.58,1.5.55,3.25.47,4.91-.08,1.97-.45,3.94-.68,5.9-.34-.16-.68-.31-1-.47l-.13-.03ZM393.58,196.72c-5.72,1.78-10.05,4.91-12.88,10.05.87,1.26,2.49,2.68,2.81,4.36.37,1.99,1.47,2.39,2.89,2.99,1.39.6,2.65,1.52,4.04,2.05,1.34.5,2.81.89,4.22.87,1.99-.05,4.01-.39,5.93-.89,4.3-1.13,9.29-1.02,11.44-6.19.16-.37.71-.58.81-.94.21-.71.55-1.6.29-2.18-.5-1.02-1.57-1.78-2.07-2.83-1.99-3.99-4.83-6.14-9.47-7.08-2.57-.52-4.41-.89-6.3.76-.79-.42-1.44-.81-1.65-.92l-.05-.03ZM368.16,256.33c4.96-.1,7.11-2.15,8.03-6.95,1.1-5.75-3.62-11.28-9.31-11.78-1.84-.16-3.65-.39-5.48-.47-1.42-.05-2.91-.13-4.22.29-1.15.37-2.05,1.5-3.12,2.15-2.07,1.23-3.28,5.17-1.73,6.93,1.76,1.99,3.78,3.91,6.03,5.35,2.75,1.76,5.82,3.02,8.79,4.43.29.13.68,0,1.02,0v.05ZM350.24,172.38c-.31.63-.71,1.71-.84,1.68-3.04-.68-4.64,2.1-5.12,3.57-.97,3.04-.63,6.53-.79,9.84,0,.16.34.39.55.5,4.09,1.97,8.37,2.47,12.52.5,1.18-.55,1.76-2.39,2.6-3.62.68-.97,1.31-1.99,2.05-2.91.92-1.08,1.36-6.03.37-6.95-1.97-1.84-4.88-2.49-7.06-2.23-1.55.18-2.81-.16-4.3-.39l.03.03Z"/>
    <path class="cls-2" d="M28.59,210.87c.18-1.36.73-2.6.39-3.46-1.42-3.65.16-6.35,2.44-8.84,2.65-2.89,6.11-3.94,9.94-4.38,2.86-.31,6.17.87,8.29-.05,3.36-1.47,5.72,1.13,8.55.6.52-.1,1.18.55,1.78.81,1.23.55,2.47,1.52,3.7,1.57,2.96.1,4.46,1.34,4.51,4.33,0,.76.26,1.5.5,2.73,2.15-.21,4.38-.6,6.59-.6,2.7,0,5.4.31,8.13.42,1.76.08,3.49.08,5.25-.03,2.39-.16,4.78-.47,7.16-.73.26-.03.55-.16.76-.05,5.14,2.39,10.65-1.84,15.93.94-3.33-4.51-7.45-8-11.99-11.31-1.78,1.81-3.83,1.73-6.48.52-2.02-.92-4.62-1.1-6.87-.84-3.73.45-5.17-2.57-7.56-4.17-2.44-1.65-2.34-4.8-3.88-6.98-.63-.87-1.23-1.76-2.18-3.15.84-2.6,1.65-5.75,2.96-8.68.55-1.23,2.13-2.1,3.44-2.83,4.07-2.31,8.4-1.78,12.62-.66,2.86.79,5.61,2.05,8.37,3.17.52.21.97.71,1.31,1.15,1.5,1.97,2.96,3.94,4.36,5.98.37.52.66,1.29.6,1.92-.26,2.81-.13,5.77-1.1,8.32-1.23,3.2.73,4.62,2.36,6.35,3.54,3.75,8.4,6.03,11.41,10.39.26.39,1.18.47,1.76.45,3.78-.26,7.48.45,11.36-.45,3.04-.68,6.53.79,9.84.84,3.62.08,7.27-.42,10.89-.58,1.44-.08,2.96-.26,4.3.16.81.26,1.78,1.57,1.76,2.39-.05.92-1,2.41-1.78,2.57-1.78.39-3.49.73-5.64.24-4.04-.94-8.4-.5-12.62-.5-.52,0-1.15.87-1.55,1.44-3.07,4.28-7.14,7.11-12.04,8.92-.81.29-1.39,1.15-2.1,1.78-1.81,1.6-3.41,3.54-5.46,4.67-1.99,1.08-2.96,3.15-4.7,4.12-2.52,1.42-4.46,3.17-6.32,5.3-.94,1.08-2.89,1.21-4.36,1.84-2.13.92-2.23,2.75-1.97,4.67.34,2.6.05,5.06-1.44,7.27-1.71,2.52-3.41,5.06-5.33,7.45-.5.63-1.71.71-2.57,1-3.88,1.36-7.11,4.49-11.65,4.07-.81-.08-1.71.6-2.2.79-2.75-1.71-5.35-3.33-7.98-4.99-.29-.18-.71-.37-.79-.63-.81-3.17-3.75-5.33-3.67-9.05.08-3.41,1.13-6.17,3.25-8.63,1.36-1.57,2.62-3.07,4.99-3.73,1.52-.42,2.68-2.23,4.51-2.99,5.59-2.26,9.81-2.55,14.9-.24.63.29,1.1,1.02,1.5,1.65,1.47,2.44,3.73,2.81,5.56.73,1.23-1.39,2.26-2.94,3.49-4.3.55-.6,1.36-.97,2.05-1.5,1.39-1.05,2.75-2.13,4.12-3.2.08-.05.1-.16.16-.18,2.28-1.44,4.67-2.78,6.85-4.38,2.55-1.84,4.91-3.91,7.37-5.88,1.18-.94,2.36-1.89,3.59-2.78,1.1-.79,2.26-1.47,3.44-2.23-1.73-1.34-24.66-1.05-28.05.26-1.97-2.18-3.73-2.13-5.93-.08-5.67-1.34-10.99-1.29-16.29-.31-1.63-.16-3.23-.29-4.8-.45-1.42-.16-2.86-.52-4.28-.5-3.02.03-3.12,3.1-4.7,4.67-1.31,1.34-2.81,2.57-4.41,3.52-2.49,1.47-5.09,2.89-7.79,3.91-1.57.6-3.46.55-5.22.52-1.68,0-3.33-.5-5.01-.52-4.49-.05-8.87-.63-12.2-3.86-1.78-1.71-2.99-4.04-4.22-5.82l.08.1ZM66.51,206.43c-1.73-1.99-3.07-3.62-4.49-5.12-.63-.68-1.44-1.55-2.23-1.63-4.96-.52-9.97-.66-14.9-1.29-3.15-.42-5.72.42-8.08,2.23-.89.66-2.18,1.44-2.31,2.34-.34,2.34-.29,4.75-.16,7.11.18,3.41,1.36,4.51,4.75,4.96,1.65.21,3.33.31,4.96.68,5.14,1.18,8.32.81,13.01-1.57.34-.18.87.05,1.26-.03.81-.16,1.73-.24,2.44-.66,2.96-1.84,5.82-3.83,5.8-6.98l-.05-.05ZM80.91,255.76c2.65-1.47,6.72-.76,8.92-4.46.79-1.29,2.6-1.94,3.49-3.2,1.21-1.65,2.65-3.57,2.78-5.48.37-4.46-3.83-4.88-6.69-6.3-1.02-.5-2.23-.6-3.36-.81-.18-.03-.42.31-.66.34-.37.08-.89.21-1.1.03-1.76-1.5-3.15-.21-4.75.42-2.57,1-3.91,3.23-5.69,5.04-2.05,2.07-2.62,4.25-2.26,7.16.39,2.94,3.75,3.78,4.01,6.61,0,.08.47.13.71.16,1.36.16,2.7.29,4.59.47v.03ZM79.55,177.44c-.37,2.1.58,4.25,2.99,5.8,1,.63,1.76,1.71,2.81,2.18,2.81,1.29,5.72,3.28,8.55,3.23,2.41-.03,5.54-.94,6.9-4.49,1.21-3.12.63-5.72-.6-8.24-.76-1.57-2.31-3.04-3.88-3.88-2.05-1.08-4.51-1.34-6.69-2.23-6.14-2.49-10.21.24-10.08,7.61v.03Z"/>
    <path class="cls-2" d="M69.45,271.39c-4.07-.13-5.64-1.15-5.48-3.44.13-1.89,1.78-3.04,3.83-2.73,2.34.37,2.75,1.86,1.65,6.17h0Z"/>
    <path class="cls-2" d="M395.39,274.62c-3.07-2.07-3.86-3.94-2.49-5.69,1-1.31,3.25-1.42,4.54-.21,1.47,1.36.81,3.36-2.05,5.88v.03Z"/>
    <path class="cls-2" d="M378.42,168.13c1.47-.42,2.91-1.13,4.38-1.13.52,0,1.6,1.71,1.47,2.47-.16.94-1.5,2.52-1.99,2.41-1.44-.34-2.7-1.39-4.01-2.15.05-.52.1-1.05.16-1.6Z"/>
    <path class="cls-2" d="M75.27,153.69c.34-.26.97-1.13,1.76-1.26,1.39-.24,3.41,2.1,3.07,3.73-.16.84-1.15,1.89-1.97,2.13-1.42.39-2.83-1.71-2.86-4.57v-.03Z"/>
    <path class="cls-2" d="M362.78,154.01c2.36-.71,4.15-1.36,5.19.63.39.73.29,2.34-.21,2.75-.76.63-2.68,1.08-3.07.66-.94-1-1.29-2.57-1.92-4.04h0Z"/>
    <path class="cls-2" d="M59.95,152.38c1.23-.89,2.36-1.99,3.73-2.6.42-.18,1.89.94,2.07,1.68.21.87-.34,2.73-.76,2.81-1.47.21-3.04-.16-4.57-.31-.16-.52-.31-1.05-.47-1.57Z"/>
    <path class="cls-2" d="M379.36,151.46c1.47,0,3.02-.29,4.36.13.55.18,1.1,2.02.81,2.78-.29.79-1.99,1.89-2.41,1.65-1.31-.71-2.28-1.99-3.38-3.07.21-.5.42-1,.66-1.5h-.03Z"/>
    <path class="cls-2" d="M16.26,213.02c.68,1.31,1.71,2.57,1.89,3.96.08.63-1.52,1.47-2.36,2.23-.71-.87-1.92-1.71-2.02-2.65-.1-1.1.73-2.31,1.15-3.49l1.31-.05h.03Z"/>
    <path class="cls-2" d="M51.76,273.78c-.94-1.15-2.05-2.15-1.89-2.41.79-1.44,1.92-2.68,2.94-3.99.87.68,1.71,1.36,2.57,2.07-1.08,1.31-2.18,2.62-3.62,4.36v-.03Z"/>
    <path class="cls-2" d="M57.09,256.83c-.81,0-1.86.31-2.39-.08-.73-.58-1.08-1.65-1.6-2.52.63-.34,1.26-1,1.86-.94,1.36.1,2.75.39,4.01.92.31.13.45,1.52.13,2.02-.31.52-1.29.66-1.94.97,0-.1-.05-.24-.08-.34v-.03Z"/>
    <path class="cls-2" d="M444.17,205.93c1.1.92,2.39,1.71,3.23,2.81.24.31-.63,2.07-1.31,2.31-.81.31-2.68-.05-2.83-.55-.42-1.23-.13-2.68-.13-4.07.34-.18.71-.37,1.05-.55v.05Z"/>
    <path class="cls-2" d="M4.01,203.78c0,1.29.24,2.62-.1,3.83-.13.47-1.73,1-2.31.73-.76-.34-1.76-1.76-1.57-2.2.52-1.13,1.68-1.94,2.57-2.89.47.18.94.37,1.42.52Z"/>
    <path class="cls-2" d="M434.01,197.46c-.6,1.13-1.1,2.36-1.92,3.28-.29.31-1.84,0-2.18-.47-.47-.63-.68-2.31-.37-2.49,1.08-.66,2.44-.87,3.67-1.26.26.31.52.63.79.94h0Z"/>
    <path class="cls-2" d="M432.46,216.17c-.34,1.23-.5,2.57-1.15,3.59-.24.39-1.89.37-2.44-.05-.58-.42-1.08-2.02-.79-2.31.84-.92,2.1-1.44,3.2-2.13.39.29.79.6,1.18.89h0Z"/>
    <path class="cls-2" d="M17.16,197.25c-.89.68-1.78,1.86-2.68,1.89-.71,0-1.42-1.44-2.13-2.26.76-.66,1.42-1.68,2.28-1.84.71-.16,1.63.71,2.44,1.1.03.37.05.73.1,1.1h-.03Z"/>
    <path class="cls-2" d="M378.49,268.09c1.05,1.23,2.07,1.89,2.23,2.7.26,1.5-.76,2.6-2.26,2.31-.79-.16-1.84-1.31-1.89-2.07s1-1.6,1.92-2.91v-.03Z"/>
    <path class="cls-2" d="M394.79,255.89c-1,.71-1.94,1.6-3.07,1.97-.34.13-1.5-1.05-1.68-1.76-.16-.6.52-2.05.92-2.07,1.18-.08,2.39.34,3.57.58.08.42.18.84.26,1.26v.03Z"/>
    <path class="cls-2" d="M65.46,165.61c.24,1.1.68,2.23.6,3.31-.03.45-1.34,1.15-1.94,1.05-.63-.1-1.68-1.18-1.57-1.6.26-1.05,1.05-1.99,1.63-2.96.42.05.87.13,1.29.18v.03Z"/>
  </g>
  <g>
    <g>
      <path class="cls-1" d="M577.16,239.11c0,5.59,0,27.73.55,32.57-.38,1.11-1.48,2.04-3.55,2.04-2.24-3.17-7.63-9.69-23.83-28.11l-43.19-49.15c-5.03-5.76-17.69-21.04-21.59-25.12h-.38c-.76,2.24-.93,6.52-.93,12.11v40.57c0,8.76.18,32.94,3.35,38.53,1.11,2.04,4.83,3.17,9.49,3.55l5.76.55c1.11,1.48.93,3.72-.38,4.66-8.38-.38-14.9-.55-21.77-.55-7.83,0-12.84.18-19.35.55-1.31-.93-1.48-3.55-.38-4.66l5.03-.55c4.28-.55,7.25-1.69,8.18-3.72,2.62-6.69,2.42-29.42,2.42-38.35v-53.81c0-5.21-.18-9.11-4.1-13.39-2.62-2.62-7.07-3.9-11.53-4.48l-3.17-.38c-1.11-1.11-1.11-3.9.38-4.66,7.83.55,17.69.55,21.04.55,2.97,0,6.14-.18,8.56-.55,3.72,9.49,25.7,34.05,31.84,40.95l18.04,20.28c12.84,14.32,21.97,24.76,30.7,33.7h.38c.76-.93.76-3.9.76-7.83v-39.84c0-8.76-.18-32.94-3.72-38.53-1.11-1.69-4.1-2.79-11.53-3.72l-3.17-.38c-1.31-1.11-1.11-4.1.38-4.66,8.56.38,14.9.55,21.97.55,8,0,12.84-.18,19.18-.55,1.48.93,1.48,3.55.38,4.66l-2.62.38c-5.96.93-9.69,2.42-10.42,3.9-3.17,6.69-2.79,29.77-2.79,38.35v44.5l.03.05Z"/>
      <path class="cls-1" d="M607.51,210.62c0-37.22,27.91-65.71,66.27-65.71,42.99,0,64.58,31.08,64.58,63.85,0,37.6-28.67,64.96-64.58,64.96-41.32,0-66.27-29.6-66.27-63.09h0ZM719.73,214.52c0-30.7-13.59-63.85-49.15-63.85-19.35,0-44.5,13.21-44.5,53.98,0,27.56,13.41,63.3,50.08,63.3,22.35,0,43.56-16.76,43.56-53.43Z"/>
      <path class="cls-1" d="M770.75,175.81c0-19.55-.38-22.52-12.11-23.46l-4.66-.38c-1.11-.73-.76-4.1.38-4.66,10.42.38,16.76.55,24.21.55s13.59-.18,22.9-.55c1.11.55,1.48,3.9.38,4.66l-4.48.38c-10.97.93-11.35,3.9-11.35,23.46v64.78c0,11.73.55,16.56,3.9,20.11,2.04,2.04,5.59,4.28,20.28,4.28,15.83,0,19.73-.75,22.7-2.42,3.72-2.24,8.56-8.93,12.28-18.42,1.11-.93,4.66-.18,4.66,1.11,0,2.04-5.21,21.04-7.83,26.05-9.49-.38-27.18-.55-46.36-.55h-17.11c-7.83,0-13.77.18-24.21.55-1.11-.55-1.48-3.55-.38-4.66l5.59-.55c10.8-1.11,11.17-3.72,11.17-23.28v-67.02l.03.03Z"/>
      <path class="cls-1" d="M935.32,227.56c-1.31-4.1-2.04-4.66-7.63-4.66h-28.11c-4.66,0-5.76.55-7.07,4.48l-6.52,19.55c-2.79,8.38-4.1,13.41-4.1,15.45,0,2.24.93,3.35,5.39,3.72l6.14.55c1.31.93,1.31,3.9-.38,4.66-4.83-.38-10.62-.38-19.35-.55-6.14,0-12.84.38-17.87.55-1.11-.75-1.48-3.72-.38-4.66l6.14-.55c4.48-.38,8.56-2.42,11.17-9.11,3.35-8.56,8.56-20.66,16.38-41.5l18.98-50.26c2.62-6.69,3.72-10.24,3.17-13.21,4.48-1.31,7.63-4.66,9.69-7.07,1.11,0,2.42.38,2.79,1.69,2.42,8.18,5.41,16.76,8.18,24.94l25.49,74.82c5.41,16.01,7.83,18.8,15.83,19.73l5.03.55c1.31.93.93,3.9,0,4.66-7.63-.38-14.14-.55-22.52-.55-8.93,0-16.01.38-21.42.55-1.48-.75-1.69-3.72-.38-4.66l5.39-.55c3.9-.38,6.52-1.48,6.52-3.35,0-2.04-.93-5.39-2.42-9.87l-8.18-25.32.03-.05ZM898.45,211c-1.48,4.28-1.31,4.48,3.9,4.48h22.9c5.41,0,5.76-.75,4.1-5.76l-10.04-30.35c-1.48-4.45-3.17-9.49-4.28-11.73h-.38c-.55.93-2.42,5.39-4.45,10.97l-11.73,32.39h-.03Z"/>
    </g>
    <polygon class="cls-1" points="677.35 204.91 686.01 208.13 677.35 211.32 674.16 219.96 670.96 211.32 662.3 208.13 670.96 204.91 674.16 196.27 677.35 204.91"/>
  </g>
</svg>